<svg width="58" height="58" viewBox="0 0 58 58" fill="none" xmlns="http://www.w3.org/2000/svg">
<rect width="58" height="58" fill="black" fill-opacity="0"/>
<circle cx="29" cy="29" r="29" fill="#B5C4C9"/>
<path d="M16.3959 23.1308C13.5977 27.9721 15.3766 35.319 18.471 39.7737C20.0156 42.0008 21.5794 43.9999 23.7213 43.9999C23.7616 43.9999 23.8021 43.9992 23.8436 43.9975C24.8499 43.9575 25.5771 43.6486 26.2802 43.3501C27.0696 43.0147 27.886 42.6679 29.1666 42.6679C30.3848 42.6679 31.1623 43.0034 31.9141 43.3278C32.6551 43.6474 33.4184 43.9781 34.5461 43.957C36.9588 43.9122 38.4401 41.7549 39.747 39.8519C41.1108 37.8648 41.795 35.9356 42.0258 35.1983L42.0351 35.169C42.0791 35.038 42.017 34.895 41.891 34.8373C41.8875 34.8357 41.8747 34.8304 41.8711 34.8288C41.4463 34.6556 37.7194 33.0072 37.6802 28.5145C37.6439 24.8644 40.4761 22.9314 41.0441 22.5811L41.0706 22.5646C41.1321 22.5251 41.175 22.4625 41.1895 22.3909C41.2041 22.3194 41.1889 22.2449 41.1476 22.1848C39.1927 19.3325 36.1964 18.9026 34.9901 18.8509C34.815 18.8335 34.6343 18.8247 34.4529 18.8247C33.036 18.8247 31.6787 19.3582 30.5883 19.7869C29.8356 20.0828 29.1855 20.3384 28.737 20.3384C28.2332 20.3384 27.5793 20.0797 26.8222 19.7802C25.8097 19.3795 24.662 18.9255 23.4471 18.9255C23.4182 18.9255 23.3896 18.9259 23.3615 18.9264C20.5367 18.9679 17.8675 20.5791 16.3959 23.1308Z" fill="white"/>
<path d="M34.9925 11.0002C33.2819 11.0697 31.2299 12.1195 30.0033 13.5518C28.961 14.7557 27.9427 16.763 28.211 18.7863C28.2278 18.9129 28.3311 19.0106 28.4589 19.0204C28.5743 19.0294 28.6922 19.0339 28.8096 19.034C30.4822 19.034 32.2866 18.1114 33.5189 16.6259C34.8159 15.0573 35.4717 13.0442 35.2733 11.2409C35.2577 11.0996 35.133 10.9947 34.9925 11.0002Z" fill="white"/>
</svg>
