<?xml version="1.0" encoding="utf-8"?><svg xmlns="http://www.w3.org/2000/svg" xmlns:xlink="http://www.w3.org/1999/xlink"><symbol viewBox="0 0 11 16" id="contacts-address"><path d="M5.501 0C2.463 0 0 2.417 0 5.4c0 1.525 1.515 4.258 1.515 4.258L5.298 16l3.948-6.268S11 7.124 11 5.399C11 2.417 8.538 0 5.501 0zm-.026 8.373c-1.74 0-3.149-1.392-3.149-3.113 0-1.719 1.409-3.11 3.15-3.11 1.738 0 3.15 1.391 3.15 3.11 0 1.72-1.412 3.113-3.15 3.113z"/></symbol><symbol viewBox="0 0 13 13" id="contacts-email"><path d="M1.863 11.177a6.322 6.322 0 0 0 2.128 1.341A7.68 7.68 0 0 0 6.733 13c1.112 0 2.138-.168 3.06-.513.836-.304.116-1.844-.498-1.592-.677.282-1.503.429-2.446.429a5.781 5.781 0 0 1-2.011-.335 4.386 4.386 0 0 1-1.535-.943 4.29 4.29 0 0 1-.995-1.487c-.244-.587-.36-1.257-.36-1.99 0-.692.116-1.352.35-1.939.232-.586.55-1.11.973-1.53a4.425 4.425 0 0 1 1.503-1.015 5.092 5.092 0 0 1 1.959-.367c.667 0 1.28.094 1.831.262a3.78 3.78 0 0 1 1.398.775c.392.346.699.765.92 1.268.223.503.33 1.09.33 1.76a4.6 4.6 0 0 1-.128 1.1c-.085.324-.19.618-.339.848-.137.22-.296.398-.487.524-.222.146-.55.23-.804.146-.318-.104-.254-.544-.233-.806.032-.356.127-.691.2-1.037.117-.566.244-1.121.36-1.676.064-.304.138-.618.202-.922a.634.634 0 0 0-.625-.765h-.465a.635.635 0 0 0-.615.461c-.031.126-.063.23-.063.23-.233-.712-1.09-.91-1.768-.9-.89.01-1.704.46-2.297 1.1-.053.062-.117.125-.17.188a4.03 4.03 0 0 0-.698 1.247c-.17.482-.254.974-.254 1.477 0 .43.063.838.18 1.204.127.378.306.702.54.975.232.272.529.492.878.65.35.156.741.24 1.165.24.317 0 .614-.052.878-.146a3.28 3.28 0 0 0 .688-.346c.16-.105.307-.23.424-.346.074.136.159.251.275.367.297.314.752.471 1.355.471a3.44 3.44 0 0 0 1.377-.283 3.258 3.258 0 0 0 1.153-.859c.318-.377.583-.838.773-1.382.19-.545.286-1.174.286-1.865 0-.943-.18-1.78-.53-2.483a5.199 5.199 0 0 0-1.418-1.77C10.47.954 9.792.608 9.041.367A7.132 7.132 0 0 0 6.733 0c-.921 0-1.8.168-2.615.492A6.844 6.844 0 0 0 1.98 1.865 6.356 6.356 0 0 0 .53 3.928 6.359 6.359 0 0 0 0 6.516c0 .932.159 1.812.487 2.598a5.908 5.908 0 0 0 1.376 2.063zm5.727-4.4c-.074.283-.18.556-.328.807a1.9 1.9 0 0 1-.56.597c-.213.147-.467.22-.784.22a.886.886 0 0 1-.477-.115.908.908 0 0 1-.307-.325 1.518 1.518 0 0 1-.169-.46 2.563 2.563 0 0 1-.053-.462c0-.293.042-.586.127-.89a2.74 2.74 0 0 1 .36-.796c.159-.23.339-.42.561-.566a1.18 1.18 0 0 1 .688-.199c.212 0 .381.032.508.105a.883.883 0 0 1 .307.283c.085.126.138.272.18.43.043.177.064.366.064.544-.01.262-.042.534-.117.828z"/></symbol><symbol viewBox="0 0 11 12" id="contacts-tel"><path d="M4.265 6.048c.298.364.567.63.564.629A8.752 8.752 0 0 0 6.27 8.1c.366.288.94.325 1.253.127.312-.198.912-.6 1.36-.498.378.086.878.375 1.48 1.116 1.42 1.748.148 2.294-.733 2.999-.883.704-3.794-1.04-6.46-3.884C.5 5.117-.504 2.176.234 1.31.974.444 1.59-.84 3.158.765c.666.68.905 1.221.96 1.62.065.474-.363 1.068-.575 1.378-.212.31-.218.91.03 1.313.219.355.453.679.692.972z"/></symbol><symbol viewBox="0 0 96.124 96.123" id="fb"><path d="M72.089.02L59.624 0C45.62 0 36.57 9.285 36.57 23.656v10.907H24.037a1.96 1.96 0 0 0-1.96 1.961v15.803a1.96 1.96 0 0 0 1.96 1.96H36.57v39.876a1.96 1.96 0 0 0 1.96 1.96h16.352a1.96 1.96 0 0 0 1.96-1.96V54.287h14.654a1.96 1.96 0 0 0 1.96-1.96l.006-15.803a1.963 1.963 0 0 0-1.961-1.961H56.842v-9.246c0-4.444 1.059-6.7 6.848-6.7l8.397-.003a1.96 1.96 0 0 0 1.959-1.96V1.98A1.96 1.96 0 0 0 72.089.02z"/></symbol><symbol viewBox="0 0 594 515" fill="none" id="icon-friend"><path d="M541.287 102.601c0 56.664-45.897 102.6-102.514 102.6-56.616 0-102.513-45.936-102.513-102.6C336.26 45.936 382.157 0 438.773 0c56.617 0 102.514 45.936 102.514 102.601zM29.63 500.451h271.368c1.105 0 2-.89 2-1.994v-84.78c0-39.491-17.146-93.998-62.59-113.552a2.022 2.022 0 0 0-2.156.373c-13.688 12.399-46.125 27.497-76.482 27.497-30.255 0-59.475-15.513-71.067-27.412a2.036 2.036 0 0 0-2.172-.503c-47.82 18.137-60.54 83.119-60.9 113.597v84.774a2 2 0 0 0 2 2z" fill="#80CD46"/><path fill-rule="evenodd" clip-rule="evenodd" d="M145.411 289.618c47.767 0 86.513-38.759 86.513-86.6 0-47.84-38.746-86.6-86.513-86.6s-86.513 38.76-86.513 86.6c0 47.841 38.746 86.6 86.513 86.6zm0 16c56.617 0 102.513-45.935 102.513-102.6 0-56.665-45.896-102.6-102.513-102.6-56.616 0-102.513 45.935-102.513 102.6 0 56.665 45.897 102.6 102.513 102.6zm266.098-108.777c47.767 0 86.514-38.759 86.514-86.6 0-47.84-38.747-86.6-86.514-86.6-47.767 0-86.513 38.76-86.513 86.6 0 47.841 38.746 86.6 86.513 86.6zm0 16c56.617 0 102.514-45.936 102.514-102.6 0-56.665-45.897-102.6-102.514-102.6-56.616 0-102.513 45.935-102.513 102.6 0 56.664 45.897 102.6 102.513 102.6zm-90.337 204.656a8 8 0 0 1 8-8h127.051a8 8 0 0 1 0 16H329.172a8 8 0 0 1-8-8zm185.941.546a8 8 0 0 1 8-8H586a8 8 0 1 1 0 16h-70.887a8 8 0 0 1-8-8z" fill="#515156"/><path fill-rule="evenodd" clip-rule="evenodd" d="M550.557 374.57a8 8 0 0 1 8 8v70.946a8 8 0 0 1-16 0V382.57a8 8 0 0 1 8-8zM68.305 315.532c-19.11 8.61-31.972 26.225-40.256 46.317-8.74 21.2-11.872 44.006-12.049 58.425V499h259.368v-78.774c0-18.71-4.083-41.016-13.481-60.824-8.861-18.676-22.222-34.706-40.933-43.848-7.792 6.218-18.925 12.46-31.409 17.341-14.282 5.585-30.983 9.648-47.405 9.648-16.441 0-32.387-4.199-45.68-9.889-11.423-4.889-21.333-11.072-28.155-17.122zm-2.24-16.383c3.894-1.478 8.074-.335 10.738 2.4 4.863 4.992 14.087 11.317 25.953 16.396 11.779 5.041 25.571 8.598 39.384 8.598 13.934 0 28.63-3.486 41.578-8.549 13.019-5.09 23.62-11.519 29.534-16.877 2.816-2.55 6.971-3.392 10.688-1.792 24.974 10.746 41.848 30.973 52.402 53.22 10.536 22.205 15.026 46.898 15.026 67.681v84.78c0 5.552-4.507 9.994-10 9.994H10c-5.523 0-10-4.478-10-10v-84.869c.19-16.062 3.601-40.959 13.257-64.38 9.636-23.373 26.005-46.437 52.807-56.602zm266.102-91.142c3.912-1.484 8.084-.319 10.734 2.402 4.863 4.992 14.087 11.317 25.953 16.396 11.779 5.041 25.571 8.598 39.384 8.598 13.934 0 28.63-3.486 41.578-8.549 13.019-5.09 23.62-11.519 29.534-16.877 2.806-2.54 6.956-3.398 10.685-1.794 34.781 14.965 53.809 48.216 62.114 80.14 3.649 14.031 5.317 28.091 5.317 40.763a8 8 0 0 1-16 0c0-11.324-1.497-24.03-4.802-36.734-7.331-28.182-23.132-54.994-49.612-67.938-7.792 6.218-18.925 12.46-31.408 17.341-14.282 5.585-30.984 9.648-47.406 9.648-16.441 0-32.387-4.199-45.68-9.889-11.423-4.889-21.332-11.072-28.154-17.122-25.984 11.713-40.36 40.115-47.275 67.88a8 8 0 0 1-9.696 5.828 8 8 0 0 1-5.829-9.696c7.572-30.407 24.804-66.837 60.563-80.397z" fill="#515156"/></symbol><symbol viewBox="0 0 551 517" fill="none" id="icon-interface"><path fill-rule="evenodd" clip-rule="evenodd" d="M341 437c115.98 0 210-94.02 210-210S456.98 17 341 17s-210 94.02-210 210c0 8.785.54 17.444 1.587 25.945l222.372-72.498c3.829-1.248 7.487 2.31 6.345 6.172L289.18 430.558C305.755 434.765 323.116 437 341 437zm-122.67-39.534l-23.474-48.207a5 5 0 0 0-2.679-2.47l-27.546-10.738a4.883 4.883 0 0 1-.259-.109l-4.05-1.847a211.098 211.098 0 0 0 58.008 63.371z" fill="#80CD46"/><path fill-rule="evenodd" clip-rule="evenodd" d="M349.152 170.339a7.998 7.998 0 0 1 1.973 8.08l-102 321.5a8 8 0 0 1-14.79 1.139l-67.606-136.145L14.094 514.219a8 8 0 0 1-11.313-.125 8 8 0 0 1 .125-11.313l160.5-157a7.998 7.998 0 0 1 12.759 2.161l63.696 128.27 91.336-287.889-293.214 93.56 99.885 46.361a7.998 7.998 0 0 1 3.888 10.624 8 8 0 0 1-10.624 3.889l-118.5-55a8 8 0 0 1 .936-14.878l327.5-104.5a8 8 0 0 1 8.084 1.96z" fill="#515156"/><path fill-rule="evenodd" clip-rule="evenodd" d="M288 90c-59.718 0-111.192 35.37-134.584 86.337a8 8 0 1 1-14.542-6.674C164.778 113.223 221.8 74 288 74c90.575 0 164 73.425 164 164 0 68.437-41.917 127.065-101.447 151.646a8 8 0 0 1-6.107-14.789C398.198 352.662 436 299.736 436 238c0-81.738-66.262-148-148-148z" fill="#515156"/><path fill-rule="evenodd" clip-rule="evenodd" d="M288.2 16c-91.292 0-169.61 55.727-202.82 135.097a8 8 0 0 1-14.76-6.176C106.229 59.817 190.225 0 288.2 0 418.439 0 524 105.694 524 236.055c0 106.106-69.926 195.849-166.154 225.588a8 8 0 0 1-4.725-15.286C442.826 418.633 508 334.958 508 236.055 508 114.514 409.584 16 288.2 16z" fill="#515156"/><path d="M79 175a8 8 0 1 1-16 0 8 8 0 0 1 16 0zm257 284a8 8 0 1 1-16 0 8 8 0 0 1 16 0z" fill="#515156"/></symbol><symbol viewBox="0 0 133 241" id="icon-next"><path d="M129.076 111.816L20.779 3.555c-4.752-4.74-12.451-4.74-17.215 0-4.752 4.74-4.752 12.439 0 17.179l99.707 99.671-99.695 99.671c-4.752 4.74-4.752 12.439 0 17.191 4.752 4.74 12.463 4.74 17.215 0l108.297-108.261c4.68-4.691 4.68-12.511-.012-17.19z"/></symbol><symbol viewBox="0 0 133 241" id="icon-prev"><path d="M3.52 129.006l108.298 108.261c4.752 4.74 12.451 4.74 17.215 0 4.752-4.74 4.752-12.439 0-17.179l-99.707-99.671 99.695-99.671c4.752-4.74 4.752-12.44 0-17.191-4.752-4.74-12.463-4.74-17.215 0L3.509 111.816c-4.68 4.691-4.68 12.511.012 17.19z"/></symbol><symbol viewBox="0 0 252 190" id="icon-quot"><path fill-rule="evenodd" clip-rule="evenodd" d="M99.948.438c2.66-1.605 5.927 1.517 4.54 4.297-6.447 12.924-16.07 35.126-14.605 49.996C78.09 68.964 71 87.25 71 107.195c0 32.96 19.364 61.389 47.312 74.484-10.431 4.877-22.665 7.693-36.312 7.693-45.287 0-82-36.792-82-82.177 0-29.37 15.373-55.14 38.495-69.671l.046-.028L99.947.438z"/><path fill-rule="evenodd" clip-rule="evenodd" d="M199.489 4.735c1.386-2.78-1.881-5.902-4.541-4.297l-61.407 37.058-.046.028C110.373 52.054 95 77.826 95 107.195c0 45.385 36.713 82.177 82 82.177s75-31 75-65.5c0-30.5-21.883-54.594-60.5-60.5-.79-.121-3.775.146-4.183-.542-7.99-13.446 4.399-42.513 12.172-58.095z"/><path d="M252 123.872c0-33.413-27.087-60.5-60.5-60.5s-60.5 27.087-60.5 60.5 27.087 60.5 60.5 60.5 60.5-27.087 60.5-60.5z"/></symbol><symbol viewBox="0 0 453 519" fill="none" id="icon-secured"><path fill-rule="evenodd" clip-rule="evenodd" d="M241.313 502.702C177.536 481.507 48.831 402.612 37.047 253.54c-2.804-35.46-6.151-125.194-4.694-159.102.055-1.28.884-2.325 2.115-2.68C80.952 78.322 183.466 42.571 240.967 1.275a2.993 2.993 0 0 1 3.52 0c57.492 41.296 159.573 77.046 206.044 90.481 1.231.356 2.061 1.4 2.116 2.68 1.457 33.91-1.89 123.643-4.694 159.103-11.784 149.071-141.052 227.967-204.834 249.162a2.78 2.78 0 0 1-1.806 0zm9.938-160.564c1.999 1.246 4.588-.19 4.588-2.546v-15.675c0-1.477 1.079-2.728 2.529-3.004C296.31 313.703 325 280.298 325 240.177 325 194.792 288.287 158 243 158s-82 36.792-82 82.177c0 29.377 15.382 55.153 38.514 69.682l.007.005 51.73 32.274z" fill="#80CD46"/><path fill-rule="evenodd" clip-rule="evenodd" d="M218.726 17.831c-57.687 40.243-155.218 74.62-202.512 88.582-1.079 35.88 2.112 120.4 4.808 154.497 11.317 143.152 134.247 220.126 197.194 241.654 30.856-10.554 77.107-34.816 117.214-74.197 40.718-39.982 74.841-95.262 80.548-167.457 2.696-34.097 5.887-118.619 4.808-154.498-47.274-13.966-144.399-48.341-202.06-88.58zM212.3 2.778a10.993 10.993 0 0 1 12.854 0c56.297 40.438 157.226 75.887 203.599 89.294 4.496 1.3 7.683 5.272 7.887 10.022 1.477 34.368-1.896 124.463-4.711 160.077-6.078 76.876-42.481 135.58-85.289 177.612-42.71 41.938-92.057 67.565-124.998 78.511-2.243.745-4.61.745-6.852 0C149.668 496.652 17.226 415.922 5.072 262.171 2.256 226.557-1.117 136.462.36 102.094c.204-4.749 3.39-8.722 7.887-10.022C54.647 78.662 156 43.212 212.3 2.778z" fill="#515156"/><path fill-rule="evenodd" clip-rule="evenodd" d="M129 248.177C129 198.39 169.278 158 219 158s90 40.39 90 90.177c0 42.61-29.493 78.32-69.161 87.746v11.67c0 8.635-9.495 13.903-16.822 9.332l-51.73-32.273-.028-.018C145.89 308.7 129 280.415 129 248.177zM219 174c-40.853 0-74 33.194-74 74.177 0 26.513 13.871 49.78 34.762 62.904a.016.016 0 0 1 .007.004l44.07 27.495v-6.663c0-5.48 3.972-9.9 9.036-10.863C267.1 314.55 293 284.396 293 248.177 293 207.194 259.853 174 219 174zm-105.14-73.635a7.999 7.999 0 0 1-4.225 10.495c-18.78 8-43.252 16.627-57.635 20.776V162.5a8 8 0 0 1-16 0v-37a8 8 0 0 1 6.137-7.78c11.24-2.69 39.855-12.477 61.228-21.58a8 8 0 0 1 10.495 4.225z" fill="#515156"/><path d="M138 95a8 8 0 1 1-16 0 8 8 0 0 1 16 0zm128 359a8 8 0 1 1-16 0 8 8 0 0 1 16 0z" fill="#515156"/><path fill-rule="evenodd" clip-rule="evenodd" d="M349.346 367.283a8 8 0 0 1 2.371 11.062c-8.034 12.42-21.206 26.045-33.981 37.801-12.884 11.856-25.87 22.264-33.966 28.277a8.001 8.001 0 0 1-9.54-12.846c7.684-5.706 20.233-15.759 32.672-27.205 12.547-11.546 24.486-24.06 31.381-34.718a8.001 8.001 0 0 1 11.063-2.37z" fill="#515156"/></symbol><symbol viewBox="0 0 477 517" fill="none" id="icon-support"><path fill-rule="evenodd" clip-rule="evenodd" d="M258.5 437C379.174 437 477 339.174 477 218.5S379.174 0 258.5 0 40 97.826 40 218.5 137.826 437 258.5 437zM242 161c19.33 0 35-15.67 35-35s-15.67-35-35-35-35 15.67-35 35 15.67 35 35 35zm-43.5 172.5V314a6 6 0 0 1 6-6h6a6 6 0 0 0 6-6v-90a6 6 0 0 0-6-6h-6a6 6 0 0 1-6-6v-19.5a6 6 0 0 1 6-6H269a6 6 0 0 1 6 6V302a6 6 0 0 0 6 6h3.5a6 6 0 0 1 6 6v19.5a6 6 0 0 1-6 6h-80a6 6 0 0 1-6-6z" fill="#80CD46"/><path fill-rule="evenodd" clip-rule="evenodd" d="M246.543 437.943l13.512-2.126C360.871 419.95 438 332.581 438 227.195 438 110.542 343.519 16 227 16S16 110.542 16 227.195c0 75.483 39.55 141.726 99.108 179.09l.022.014 131.413 81.88v-50.236zm16 79.057l-155.915-97.146C42.585 379.686 0 308.418 0 227.195 0 101.719 101.631 0 227 0s227 101.719 227 227.195c0 113.375-82.972 207.353-191.457 224.427V517z" fill="#515156"/><path d="M270.573 312.719h-6.994V187.931c0-4.662-3.774-8.443-8.427-8.443h-72.725c-4.654 0-8.427 3.781-8.427 8.443v30.395c0 4.663 3.773 8.443 8.427 8.443h7.079v85.95h-7.079c-4.654 0-8.427 3.78-8.427 8.443v30.395c0 4.663 3.773 8.443 8.427 8.443h88.146c4.654 0 8.427-3.78 8.427-8.443v-30.395c0-4.663-3.773-8.443-8.427-8.443zm-79.719 30.395v-13.509h7.079c4.653 0 8.427-3.78 8.427-8.443V218.326c0-4.663-3.774-8.443-8.427-8.443h-7.079v-13.509h55.786v124.788c0 4.663 3.774 8.443 8.427 8.443h6.995l.084 13.509h-71.292zM222.287 97c-19.502 0-35.309 15.838-35.309 35.376 0 19.538 15.807 35.376 35.309 35.376 19.501 0 35.309-15.838 35.309-35.376 0-19.538-15.809-35.376-35.309-35.376zm0 53.951c-10.193 0-18.456-8.278-18.456-18.49-.046-10.212 8.179-18.529 18.371-18.575h.085v.084c10.192 0 18.455 8.279 18.455 18.491s-8.263 18.49-18.455 18.49z" fill="#515156"/></symbol><symbol viewBox="0 0 538 517" fill="none" id="icon-world"><path d="M158.5 34.5c0 19.054-22 77.5-34.5 77.5S89.5 53.554 89.5 34.5C89.5 15.446 104.946 0 124 0c19.054 0 34.5 15.446 34.5 34.5z" fill="#80CD46"/><path fill-rule="evenodd" clip-rule="evenodd" d="M314 475c123.712 0 224-100.288 224-224S437.712 27 314 27 90 127.288 90 251s100.288 224 224 224zm18.5-202c12.5 0 34.5-58.446 34.5-77.5 0-19.054-15.446-34.5-34.5-34.5-19.054 0-34.5 15.446-34.5 34.5 0 19.054 22 77.5 34.5 77.5zM441 360.5c0 19.054-22 77.5-34.5 77.5S372 379.554 372 360.5c0-19.054 15.446-34.5 34.5-34.5 19.054 0 34.5 15.446 34.5 34.5zM160.5 326c12.5 0 34.5-58.446 34.5-77.5 0-19.054-15.446-34.5-34.5-34.5-19.054 0-34.5 15.446-34.5 34.5 0 19.054 22 77.5 34.5 77.5z" fill="#80CD46"/><path fill-rule="evenodd" clip-rule="evenodd" d="M134.447 53.38C136.628 45.497 137.5 40 137.5 37.5c0-10.217-8.283-18.5-18.5-18.5s-18.5 8.283-18.5 18.5c0 2.5.872 7.997 3.053 15.88 2.073 7.49 4.994 15.957 8.284 23.875 2.388 5.744 4.845 10.898 7.163 15.047 2.318-4.15 4.775-9.303 7.163-15.047 3.29-7.918 6.211-16.385 8.284-23.875zm-21.142 47.235c-.239.218-.234.172.004-.003l-.004.004zm11.386-.003c.238.175.243.221.004.004l-.004-.004zM119 115c12.5 0 34.5-58.446 34.5-77.5C153.5 18.446 138.054 3 119 3 99.946 3 84.5 18.446 84.5 37.5c0 19.054 22 77.5 34.5 77.5zm223.947 99.38C345.128 206.497 346 201 346 198.5c0-10.217-8.283-18.5-18.5-18.5s-18.5 8.283-18.5 18.5c0 2.5.872 7.997 3.053 15.88 2.073 7.49 4.994 15.957 8.284 23.875 2.388 5.744 4.845 10.898 7.163 15.047 2.318-4.149 4.775-9.303 7.163-15.047 3.29-7.918 6.211-16.385 8.284-23.875zm-21.142 47.235c-.239.218-.234.172.004-.003l-.004.003zm11.386-.003c.238.175.243.221.004.003l-.004-.003zM327.5 276c12.5 0 34.5-58.446 34.5-77.5 0-19.054-15.446-34.5-34.5-34.5-19.054 0-34.5 15.446-34.5 34.5 0 19.054 22 77.5 34.5 77.5zm89.447 103.38C419.128 371.497 420 366 420 363.5c0-10.217-8.283-18.5-18.5-18.5s-18.5 8.283-18.5 18.5c0 2.5.872 7.997 3.053 15.88 2.073 7.49 4.994 15.957 8.284 23.875 2.388 5.744 4.845 10.898 7.163 15.047 2.318-4.149 4.775-9.303 7.163-15.047 3.29-7.918 6.211-16.385 8.284-23.875zm-21.142 47.235c-.239.218-.234.172.004-.003l-.004.003zm11.386-.003c.238.175.243.221.004.003l-.004-.003zM401.5 441c12.5 0 34.5-58.446 34.5-77.5 0-19.054-15.446-34.5-34.5-34.5-19.054 0-34.5 15.446-34.5 34.5 0 19.054 22 77.5 34.5 77.5zM170.947 267.38C173.128 259.497 174 254 174 251.5c0-10.217-8.283-18.5-18.5-18.5s-18.5 8.283-18.5 18.5c0 2.5.872 7.997 3.053 15.88 2.073 7.49 4.994 15.957 8.284 23.875 2.388 5.744 4.845 10.898 7.163 15.047 2.318-4.149 4.775-9.303 7.163-15.047 3.29-7.918 6.211-16.385 8.284-23.875zm-21.142 47.235c-.239.218-.234.172.004-.003l-.004.003zm11.386-.003c.238.175.243.221.004.003l-.004-.003zM155.5 329c12.5 0 34.5-58.446 34.5-77.5 0-19.054-15.446-34.5-34.5-34.5-19.054 0-34.5 15.446-34.5 34.5 0 19.054 22 77.5 34.5 77.5z" fill="#515156"/><path fill-rule="evenodd" clip-rule="evenodd" d="M256.5 20a241.704 241.704 0 0 0-47.073 4.603 8 8 0 0 1-3.114-15.694A257.705 257.705 0 0 1 256.5 4C398.161 4 513 118.839 513 260.5S398.161 517 256.5 517 0 402.161 0 260.5c0-63.739 23.26-122.067 61.743-166.926a8 8 0 1 1 12.144 10.418C37.797 146.06 16 200.725 16 260.5 16 393.324 123.676 501 256.5 501S497 393.324 497 260.5 389.324 20 256.5 20zm-94.83 36.608a8 8 0 0 1 11.222-1.438c12.683 9.8 53.86 27.61 109.333 11.16 19.218-5.699 34.799-5.474 46.872-.3 12.241 5.246 19.658 15.059 23.404 25.925 3.695 10.719 3.923 22.644 1.949 33.223-1.952 10.465-6.252 20.614-12.657 27.339a8 8 0 0 1-11.31.276 8 8 0 0 1-.276-11.31c3.595-3.775 6.92-10.689 8.515-19.239 1.573-8.437 1.27-17.48-1.348-25.074-2.566-7.446-7.244-13.29-14.58-16.434-7.506-3.217-18.987-4.117-36.019.934-60.527 17.95-107.017-.974-123.667-13.84a8 8 0 0 1-1.438-11.222z" fill="#515156"/><path fill-rule="evenodd" clip-rule="evenodd" d="M481.354 143.047a8 8 0 0 1-.401 11.307c-5.548 5.168-13.598 14.521-19.287 25.324-5.772 10.959-8.411 22.034-5.517 31.478l.232.759.079.789c.723 7.224-1.633 13.652-4.358 18.853-1.967 3.753-4.526 7.545-6.673 10.726a228.644 228.644 0 0 0-1.976 2.959c-2.75 4.221-3.849 6.649-4.013 8.194-.053.503.017.735.127.954.147.295.626 1.048 2.117 2.125 1.816 1.311 3.573 2.609 5.289 3.876 7.349 5.428 13.955 10.306 21.333 13.429 8.43 3.569 17.558 4.629 29.108-.201a8 8 0 0 1 6.172 14.762c-15.95 6.67-29.572 5.23-41.517.174-9.305-3.939-17.793-10.232-25.2-15.722-1.567-1.162-3.085-2.288-4.553-3.348-3.009-2.173-5.483-4.78-7.066-7.953-1.622-3.249-2.059-6.596-1.721-9.781.617-5.83 3.893-11.214 6.518-15.243a277.365 277.365 0 0 1 2.585-3.877c1.985-2.943 3.776-5.596 5.297-8.5 1.9-3.626 2.755-6.578 2.655-9.196-4.25-15.067.468-30.452 6.925-42.713 6.669-12.664 15.92-23.411 22.538-29.576a8 8 0 0 1 11.307.401zm-362.021 12.325a8.001 8.001 0 0 1-6.205 9.461c-6.942 1.442-11.955 3.183-13.947 7.603-1.01 2.243-1.747 6.246-.159 13.305 1.596 7.094 5.435 16.758 12.914 29.773a7.999 7.999 0 0 1-2.95 10.922 8 8 0 0 1-10.922-2.95c-7.921-13.785-12.574-25-14.652-34.233-2.085-9.269-1.679-17.04 1.182-23.389 5.69-12.631 19.104-15.415 25.092-16.658l.186-.039a8.001 8.001 0 0 1 9.461 6.205zm163.215 83.977a8 8 0 0 1-4.897 10.199c-16.967 5.959-36.443 14.726-47.183 24.162-5.493 4.826-7.098 8.426-7.117 10.631-.014 1.658.922 5.329 8.929 10.4 16.344 10.351 27.647 19.433 36.013 26.154 3.265 2.624 6.083 4.888 8.579 6.728 4.57 3.369 8.084 5.39 11.733 6.53 3.579 1.119 7.839 1.557 14.043.893 18.353-1.967 34.217 11.083 42.614 24.367 4.327 6.845 7.326 14.68 7.712 22.201.393 7.659-1.99 15.804-9.411 20.957-3.743 2.6-8.252 7.02-13.685 12.69-1.183 1.234-2.403 2.522-3.655 3.841-4.259 4.492-8.873 9.357-13.536 13.771-6.016 5.694-12.701 11.22-19.729 14.674-7.136 3.507-15.474 5.263-23.929 1.881-4.912-1.965-8.613-2.417-11.103-1.994-2.053.348-3.699 1.321-5.074 3.867-1.586 2.936-2.881 8.201-2.598 17.021.279 8.713 2.074 20.241 5.984 35.148a8 8 0 0 1-15.476 4.06c-4.09-15.593-6.17-28.378-6.5-38.696-.327-10.211 1.034-18.696 4.511-25.135 3.688-6.829 9.51-10.856 16.473-12.039 6.526-1.108 13.387.377 19.725 2.912 2.795 1.118 6.207.937 10.93-1.385 4.832-2.374 10.116-6.566 15.787-11.935 4.318-4.086 8.519-8.515 12.724-12.949 1.303-1.373 2.606-2.747 3.913-4.111 5.302-5.533 10.855-11.113 16.112-14.763 1.579-1.097 2.759-3.077 2.558-6.996-.208-4.057-1.959-9.253-5.257-14.471-6.853-10.841-17.739-18.041-27.386-17.008-7.796.836-14.349.399-20.519-1.529-6.102-1.907-11.275-5.104-16.455-8.923-3.205-2.363-6.424-4.952-9.97-7.804-8.196-6.593-18.139-14.592-33.688-24.439-9.993-6.329-16.453-14.296-16.368-24.056.08-9.215 6.069-16.814 12.555-22.513 13.218-11.614 35.242-21.197 52.442-27.238a8 8 0 0 1 10.199 4.897zm71.203 31.356a8 8 0 0 1 11.044-2.454c4.328 2.754 9.271 8.453 11.959 15.726 2.825 7.644 3.26 17.341-2.24 27.37-3.554 6.482-9.717 10.855-16.281 13.592-6.63 2.764-14.305 4.143-21.972 4.248-14.969.205-32.243-4.495-42.38-16.534-7.033-8.351-11.024-16.726-11.301-24.7-.292-8.404 3.602-15.271 9.922-19.568a7.998 7.998 0 0 1 11.113 2.117 7.998 7.998 0 0 1-2.117 11.113c-2.013 1.37-3.019 3.152-2.928 5.782.106 3.06 1.782 8.101 7.549 14.95 5.862 6.961 17.541 11.011 29.923 10.841 6.007-.082 11.608-1.172 16.034-3.017 4.491-1.873 7.166-4.25 8.41-6.518 3-5.471 2.685-10.274 1.26-14.13-1.562-4.227-4.369-7.028-5.541-7.774a8 8 0 0 1-2.454-11.044zM146.326 371.771a7.998 7.998 0 0 1 2.403 11.055c-.447.697-1.217 2.651-1.429 6.44-.203 3.635.143 8.354 1.289 13.988 2.29 11.253 7.652 25.545 17.218 41.044a6487.858 6487.858 0 0 0 19.836 31.922c5.78 9.253 8.813 14.109 10.362 16.915a8.002 8.002 0 0 1-14.01 7.73c-1.364-2.474-4.029-6.737-9.325-15.211a6380.674 6380.674 0 0 1-20.477-32.952c-10.434-16.901-16.572-32.942-19.282-46.256-1.354-6.65-1.883-12.772-1.586-18.074.288-5.149 1.393-10.228 3.946-14.198a7.998 7.998 0 0 1 11.055-2.403z" fill="#515156"/><path d="M129 134a8 8 0 1 1-16 0 8 8 0 0 1 16 0zm207.5 156.5a8 8 0 1 1-16 0 8 8 0 0 1 16 0zm-176.5 58a8 8 0 1 1-16 0 8 8 0 0 1 16 0z" fill="#515156"/></symbol><symbol viewBox="0 0 97.395 97.395" id="inst"><path d="M12.501 0h72.393c6.875 0 12.5 5.09 12.5 12.5v72.395c0 7.41-5.625 12.5-12.5 12.5H12.501C5.624 97.395 0 92.305 0 84.895V12.5C0 5.09 5.624 0 12.501 0zm58.447 10.821a4.395 4.395 0 0 0-4.383 4.385v10.495a4.396 4.396 0 0 0 4.383 4.385h11.008a4.398 4.398 0 0 0 4.385-4.385V15.206a4.397 4.397 0 0 0-4.385-4.385H70.948zm15.439 30.367h-8.572a28.486 28.486 0 0 1 1.25 8.355c0 16.2-13.556 29.332-30.275 29.332-16.718 0-30.272-13.132-30.272-29.332 0-2.904.438-5.708 1.25-8.355h-8.945v41.141a3.884 3.884 0 0 0 3.872 3.872h67.822a3.883 3.883 0 0 0 3.872-3.872V41.188h-.002zM48.789 29.533c-10.802 0-19.56 8.485-19.56 18.953s8.758 18.953 19.56 18.953c10.803 0 19.562-8.485 19.562-18.953s-8.758-18.953-19.562-18.953z"/></symbol><symbol viewBox="0 0 730 189" id="logotip"><path fill-rule="evenodd" clip-rule="evenodd" d="M118.402 97.996c4.422 3 5.569 9.007 2.561 13.418l-18.549 27.208-.001.003-26.435 38.748a9.69 9.69 0 0 1-7.857 4.224 9.692 9.692 0 0 1-7.983-3.984l-47.052-64.668c-3.14-4.317-2.179-10.356 2.149-13.49 4.327-3.133 10.382-2.173 13.523 2.144l38.96 53.547 37.233-54.595c3.008-4.41 9.03-5.555 13.451-2.555z"/><path fill-rule="evenodd" clip-rule="evenodd" d="M66.256 57.133c-2.45.21-5.091 1.34-7.449 4.567-3.068 4.21-3.373 7.636-2.85 10.12.567 2.7 2.342 5.326 5.056 7.22 2.723 1.9 5.907 2.721 8.745 2.376 2.61-.317 5.556-1.68 8.163-5.431 2.516-3.632 2.72-6.671 2.136-9.053-.643-2.623-2.465-5.262-5.214-7.21-2.754-1.953-5.885-2.82-8.587-2.589zm32.61 5.21c1.958 7.984.505 16.662-5.022 24.634l-.005.007c-5.633 8.11-13.431 12.597-21.737 13.607-8.079.983-15.984-1.392-22.188-5.722-6.213-4.335-11.205-10.974-12.91-19.084-1.749-8.324.168-17.25 6.146-25.45l.005-.007c5.623-7.7 13.347-11.75 21.45-12.442 7.854-.67 15.468 1.845 21.456 6.09 5.992 4.249 10.908 10.625 12.806 18.368z"/><path fill-rule="evenodd" clip-rule="evenodd" d="M0 68.91C0 30.871 30.721 0 68.755 0c38.035 0 68.756 30.871 68.756 68.91 0 1.93-.075 3.798-.225 5.67-.426 5.318-5.093 9.283-10.423 8.858-5.331-.425-9.306-5.08-8.88-10.398.109-1.352.164-2.706.164-4.13 0-27.467-22.148-49.593-49.392-49.593-27.243 0-49.39 22.126-49.39 49.593 0 1.424.054 2.779.162 4.13.427 5.317-3.549 9.972-8.879 10.398-5.33.425-9.997-3.54-10.423-8.858A70.512 70.512 0 0 1 0 68.91z"/><path d="M206.937 38.425c-23.978 0-39.038 16.635-39.038 37.782 0 21.148 15.06 37.782 39.038 37.782 11.763 0 20.682-4.449 25.529-9.736 1.81-1.934 2.78-3.932 2.78-6.77 0-4.448-3.103-7.543-7.756-7.543-2.65 0-4.331.645-6.14 1.934-2.65 2-7.11 5.287-14.219 5.287-12.733 0-19.39-9.864-19.39-20.954 0-11.025 6.657-20.954 19.39-20.954 7.109 0 11.569 3.288 14.219 5.287 1.809 1.29 3.49 1.999 6.14 1.999 4.653 0 7.756-3.16 7.756-7.608 0-2.837-.97-4.771-2.78-6.77-4.847-5.287-13.766-9.736-25.529-9.736zm85.895 8.898c0-4.965-3.102-8.898-8.919-8.898-9.565 0-15.899 4.578-19.325 12.508v-1.805c0-5.416-4.524-10.058-9.953-10.058-5.946 0-10.082 4.127-10.082 10.058v54.352c0 5.416 4.588 9.864 10.082 9.864 5.429 0 9.953-4.448 9.953-9.864V77.69c0-13.346 7.562-21.47 19.325-21.47 5.3 0 8.919-3.933 8.919-8.897zm74.004 28.884c0-20.825-15.577-37.781-37.875-37.781-22.362 0-37.938 16.956-37.938 37.781s15.576 37.782 37.938 37.782c22.298 0 37.875-16.957 37.875-37.782zm-19.519 0c0 11.09-6.98 20.632-18.356 20.632-11.439 0-18.355-9.542-18.355-20.632 0-11.025 6.916-20.631 18.355-20.631 11.376 0 18.356 9.606 18.356 20.631zm85.055-23.468c0-4.449-4.266-7.866-10.083-10.51-5.623-2.643-11.763-3.803-18.032-3.803-19.519 0-29.601 9.413-29.601 21.47 0 11.54 6.075 19.793 27.145 25.402 9.76 2.644 13.573 4.32 13.573 8.253 0 3.804-4.137 5.931-10.47 5.931-6.916 0-12.41-2.772-15.9-4.964-2.262-1.483-4.459-2.772-7.756-2.772-3.942 0-7.303 2.643-7.303 6.447 0 3.095 1.163 6.06 4.33 8.382 6.27 4.642 15.9 7.414 26.176 7.414 18.679 0 29.795-8.897 29.795-22.115 0-14.7-11.31-19.47-27.016-23.726-10.599-2.837-13.702-4.32-13.702-8.446 0-3.933 4.137-5.416 10.212-5.416 4.137 0 7.821.774 12.28 2.643 3.167 1.29 6.14 3.095 8.79 3.095 5.429 0 7.562-3.095 7.562-7.285zm66.7 0c0-4.449-4.266-7.866-10.083-10.51-5.623-2.643-11.763-3.803-18.032-3.803-19.519 0-29.601 9.413-29.601 21.47 0 11.54 6.14 19.793 27.145 25.402 9.759 2.644 13.573 4.32 13.573 8.253 0 3.804-4.137 5.931-10.471 5.931-6.915 0-12.409-2.772-15.834-4.964-2.327-1.483-4.525-2.772-7.821-2.772-3.942 0-7.239 2.643-7.239 6.447 0 3.095 1.099 6.06 4.266 8.382 6.269 4.642 15.899 7.414 26.176 7.414 18.678 0 29.795-8.897 29.795-22.115 0-14.7-11.31-19.47-27.016-23.726-10.6-2.837-13.702-4.32-13.702-8.446 0-3.933 4.137-5.416 10.212-5.416 4.136 0 7.82.774 12.28 2.643 3.167 1.29 6.14 3.095 8.79 3.095 5.429 0 7.562-3.095 7.562-7.285zm11.633 50.741c0 5.416 4.46 9.864 9.889 9.864 5.494 0 9.953-4.448 9.953-9.864V10.702c0-5.48-4.459-9.93-9.953-9.93-5.429 0-9.889 4.45-9.889 9.93v92.778zm33.286-86.009c0 6.254 4.912 11.219 11.246 11.219 6.269 0 11.246-4.965 11.246-11.219 0-6.318-4.977-11.283-11.246-11.283-6.334 0-11.246 4.965-11.246 11.283zm1.292 86.009c0 5.416 4.46 9.864 9.954 9.864 5.429 0 9.888-4.448 9.888-9.864V49c0-5.481-4.459-9.93-9.888-9.93-5.494 0-9.954 4.449-9.954 9.93v54.48zm33.803-30.883v30.883c0 5.416 4.459 9.864 9.888 9.864 5.494 0 9.954-4.448 9.954-9.864V71.114c0-8.962 5.946-15.216 15.253-15.216 9.242 0 15.188 6.254 15.188 15.216v32.366c0 5.416 4.46 9.864 9.953 9.864 5.429 0 9.889-4.448 9.889-9.864V72.597c0-19.858-15.059-34.171-35.03-34.171-20.036 0-35.095 14.313-35.095 34.17zM730 76.207c0-21.598-13.701-37.781-34.384-37.781-21.716 0-37.421 15.989-37.421 37.781 0 20.632 12.926 37.782 37.745 37.782 11.375 0 18.678-3.095 24.107-6.576 3.49-2.128 7.174-5.287 7.174-9.93 0-4.126-2.973-7.22-7.949-7.22-2.973 0-4.977 1.483-7.304 3.288-3.813 2.966-8.919 4.77-15.253 4.77-11.375 0-16.869-7.091-17.838-15.666h44.014c5.106 0 7.109-3.288 7.109-6.448zM711.128 68.6H679.2c.97-8.381 7.303-14.313 16.416-14.313 8.726 0 14.026 6.77 15.512 14.313z"/><path d="M176.689 153.475v-3.546c0-5.03 1.939-6.77 5.817-6.77h1.034c.775 0 1.422-.58 1.422-1.419 0-.773-.647-1.418-1.422-1.418h-1.228c-6.399 0-9.049 3.482-9.049 9.607v3.546h-3.942c-.776 0-1.422.58-1.422 1.418 0 .774.646 1.419 1.422 1.419h3.942v20.438c0 .967.776 1.676 1.68 1.676.97 0 1.746-.71 1.746-1.676v-20.438h6.463c.711 0 1.422-.645 1.422-1.419 0-.838-.711-1.418-1.422-1.418h-6.463zm34.836 12.25c0-7.157-5.3-12.96-12.926-12.96-7.562 0-12.926 5.803-12.926 12.96 0 7.156 5.364 12.959 12.926 12.959 7.627 0 12.926-5.803 12.926-12.96zm-3.425 0c0 5.738-4.137 9.993-9.501 9.993-5.3 0-9.5-4.255-9.5-9.993s4.2-9.994 9.5-9.994c5.364 0 9.5 4.256 9.5 9.994zm23.009-11.219c0-.902-.711-1.483-1.68-1.483-4.008 0-7.046 2.45-8.144 5.61V154.7c0-.967-.711-1.677-1.68-1.677-.97 0-1.746.645-1.746 1.677v22.05c0 .903.84 1.676 1.745 1.676.905 0 1.68-.773 1.68-1.676v-9.8c0-6.319 3.297-10.96 8.144-10.96.905 0 1.68-.517 1.68-1.484zm32.315-1.74c-7.497 0-12.603 6.06-12.603 12.959 0 6.834 4.848 12.959 12.927 12.959 4.524 0 8.208-2.128 10.082-4.771.259-.322.388-.58.388-1.032 0-.709-.517-1.418-1.422-1.418-.646 0-1.034.451-1.293.774-2.068 2.45-4.524 3.546-7.755 3.546-5.946 0-9.307-4.384-9.501-8.898h19.648c.775 0 1.422-.644 1.422-1.418 0-7.286-4.912-12.702-11.893-12.702zm8.79 11.282h-17.838c.452-4.642 4.072-8.446 9.048-8.446 4.913 0 8.338 3.675 8.79 8.446zm8.726-9.993c-.259-.71-.647-1.032-1.487-1.032-.969 0-1.551.645-1.551 1.483 0 .323.129.645.194.903l9.953 22.05c.259.58.582.967 1.422.967.776 0 1.099-.387 1.422-.967l9.889-22.05c.129-.258.193-.58.193-.903 0-.838-.581-1.483-1.551-1.483-.775 0-1.163.323-1.486 1.032l-8.467 19.149-8.531-19.149zm34.901-1.29c-7.433 0-12.603 6.061-12.603 12.96 0 6.834 4.847 12.959 12.991 12.959 4.459 0 8.143-2.128 10.082-4.771.194-.322.323-.58.323-1.032 0-.709-.517-1.418-1.422-1.418-.646 0-1.034.451-1.292.774-2.069 2.45-4.525 3.546-7.691 3.546-6.011 0-9.372-4.384-9.566-8.898h19.648c.776 0 1.422-.644 1.422-1.418 0-7.286-4.912-12.702-11.892-12.702zm8.79 11.283h-17.839c.453-4.642 4.072-8.446 9.049-8.446 4.912 0 8.337 3.675 8.79 8.446zm22.815-9.542c0-.902-.776-1.483-1.745-1.483-4.008 0-7.045 2.45-8.144 5.61V154.7c0-.967-.646-1.677-1.68-1.677-.97 0-1.681.645-1.681 1.677v22.05c0 .903.776 1.676 1.681 1.676.969 0 1.68-.773 1.68-1.676v-9.8c0-6.319 3.296-10.96 8.144-10.96.904 0 1.745-.517 1.745-1.484zm25.335 0c0-.838-.517-1.483-1.486-1.483-.776 0-1.228.387-1.422.968l-8.402 20.244-8.532-20.18c-.323-.645-.711-1.032-1.486-1.032-.97 0-1.616.645-1.616 1.483 0 .323.129.58.259.903l9.63 22.437c-2.262 3.868-4.589 6.19-7.692 8.317-.711.451-1.034.838-1.034 1.419 0 .838.582 1.418 1.487 1.418.452 0 .711-.13 1.034-.258 5.041-3.03 8.596-8.06 10.793-13.346 2.78-6.576 8.338-20.116 8.338-20.116.129-.258.129-.516.129-.774zm27.663 11.219c0-7.157-5.3-12.96-12.927-12.96-7.562 0-12.861 5.803-12.861 12.96 0 7.156 5.299 12.959 12.861 12.959 7.627 0 12.927-5.803 12.927-12.96zm-3.361 0c0 5.738-4.201 9.993-9.566 9.993-5.3 0-9.501-4.255-9.501-9.993s4.201-9.994 9.501-9.994c5.365 0 9.566 4.256 9.566 9.994zm32.962-1.548c0-6.576-4.007-11.411-10.6-11.411-4.136 0-7.432 1.74-9.242 4.9V154.7c0-.967-.711-1.677-1.681-1.677-.969 0-1.68.71-1.68 1.677v22.05c0 .967.711 1.676 1.68 1.676.97 0 1.681-.71 1.681-1.676v-11.8c0-5.545 3.684-9.026 8.531-9.026 5.235 0 7.885 3.223 7.885 8.252v12.573c0 .967.776 1.676 1.745 1.676.97 0 1.681-.71 1.681-1.676v-12.573zm18.678-11.411c-7.432 0-12.603 6.06-12.603 12.959 0 6.834 4.848 12.959 12.991 12.959 4.46 0 8.144-2.128 10.083-4.771.194-.322.323-.58.323-1.032 0-.709-.517-1.418-1.422-1.418-.646 0-1.034.451-1.293.774-2.068 2.45-4.524 3.546-7.691 3.546-5.946 0-9.371-4.384-9.565-8.898h19.712c.711 0 1.422-.644 1.422-1.418 0-7.286-4.976-12.702-11.957-12.702zm8.79 11.282h-17.838c.452-4.642 4.072-8.446 9.048-8.446 4.912 0 8.338 3.675 8.79 8.446z" fill="#434242"/></symbol><symbol viewBox="0 0 459.325 459.325" id="plus"><path d="M459.319 229.668c0 22.201-17.992 40.193-40.205 40.193H269.85v149.271c0 22.207-17.998 40.199-40.196 40.193-11.101 0-21.149-4.492-28.416-11.763-7.276-7.281-11.774-17.324-11.769-28.419l-.006-149.288H40.181c-11.094 0-21.134-4.492-28.416-11.774C4.501 250.817.006 240.769.006 229.668 0 207.471 17.992 189.475 40.202 189.475h149.267V40.202C189.469 17.998 207.471 0 229.671 0c22.192.006 40.178 17.986 40.19 40.187v149.288h149.282c22.196.012 40.165 17.996 40.176 40.193z"/></symbol><symbol viewBox="0 0 304.36 304.36" id="vk"><path d="M261.945 175.576c10.096 9.857 20.752 19.131 29.807 29.982 4 4.822 7.787 9.798 10.684 15.394 4.105 7.955.387 16.709-6.746 17.184l-44.34-.02c-11.436.949-20.559-3.655-28.23-11.474-6.139-6.253-11.824-12.908-17.727-19.372-2.42-2.642-4.953-5.128-7.979-7.093-6.053-3.929-11.307-2.726-14.766 3.587-3.523 6.421-4.322 13.531-4.668 20.687-.475 10.441-3.631 13.186-14.119 13.664-22.414 1.057-43.686-2.334-63.447-13.641-17.422-9.968-30.932-24.04-42.691-39.971-22.895-31.021-40.428-65.108-56.186-100.15C-2.01 76.458.584 72.22 9.295 72.07c14.465-.281 28.928-.261 43.41-.02 5.879.086 9.771 3.458 12.041 9.012 7.826 19.243 17.402 37.551 29.422 54.521 3.201 4.518 6.465 9.036 11.113 12.216 5.142 3.521 9.057 2.354 11.476-3.374 1.535-3.632 2.207-7.544 2.553-11.434 1.146-13.383 1.297-26.743-.713-40.079-1.234-8.323-5.922-13.711-14.227-15.286-4.238-.803-3.607-2.38-1.555-4.799 3.564-4.172 6.916-6.769 13.598-6.769h50.111c7.889 1.557 9.641 5.101 10.721 13.039l.043 55.663c-.086 3.073 1.535 12.192 7.07 14.226 4.43 1.448 7.35-2.096 10.008-4.905 11.998-12.734 20.561-27.783 28.211-43.366 3.395-6.852 6.314-13.968 9.143-21.078 2.096-5.276 5.385-7.872 11.328-7.757l48.229.043c1.43 0 2.877.021 4.262.258 8.127 1.385 10.354 4.881 7.844 12.817-3.955 12.451-11.65 22.827-19.174 33.251-8.043 11.129-16.645 21.877-24.621 33.072-7.328 10.223-6.746 15.376 2.357 24.255zm0 0" fill-rule="evenodd" clip-rule="evenodd"/></symbol></svg>