<svg version="1" xmlns="http://www.w3.org/2000/svg" width="346.667" height="346.667" viewBox="0 0 260.000000 260.000000"><path d="M0 130v130h260V0H0v130zm152.3-92.3c4.8 1.7 11.2 4.6 14.3 6.4 12.5 7.6 24 20.9 29.7 34.4 5.3 12.6 7.3 31.3 4.2 38-2.4 5-8.4 6.9-13.8 4.4-3.8-1.7-4.9-4.7-5.3-14.3-.1-5.6-1-11.6-2.3-15.6-11.2-35.7-55.5-48.1-83.1-23.3C85 77.6 79.4 90 78.3 107c-.6 8.6-.9 9.7-3.4 12.2-2 2-3.7 2.8-6.4 2.8-7.6 0-10.5-4.1-10.5-15 0-23.8 12.7-47.6 32.5-60.9 13.3-8.9 25.4-12.2 42-11.7 9.1.3 12.5.9 19.8 3.3zm-9.7 39.9c6.8 3.2 13.3 9.5 16.6 16.1 3.4 7 3.3 20.7-.2 27.8-3.1 6.4-10.2 13.4-16.5 16.5-7.5 3.6-17.8 3.5-26.2-.4-7.3-3.3-14.4-10.4-17.6-17.4-3-6.7-3-17.9.1-24.7 4.9-10.7 11.5-17.1 20.6-20.1 6.2-2.1 16.3-1.1 23.2 2.2zm38.4 59.9c3.6 1.9 5 4.3 5 8.9 0 3.8 1.5 1.4-35.6 56.2-9.3 13.6-15.2 21.4-16.9 22.2-3.3 1.5-6.4 1.5-9.2-.1-1.1-.7-13.9-17.4-28.2-37.2-27.4-37.9-27.8-38.6-25-44.9.7-1.4 2.7-3.2 4.6-4.1 3.1-1.5 4-1.5 7.2-.3 3.1 1.2 6.7 5.6 24.8 30.6l21.2 29.2 19.5-28.9c10.8-15.9 20.8-29.9 22.2-31 3.2-2.5 6.4-2.7 10.4-.6z"/><path d="M122.8 96c-3 1.8-5.8 7.6-5.8 12 0 3.6.6 4.8 3.9 8.1 3.3 3.4 4.5 3.9 8.3 3.9 9.4 0 15.6-9.8 11.3-18-2.9-5.6-12.6-8.9-17.7-6z"/></svg>