<svg width="594" height="515" viewBox="0 0 594 515" fill="none" xmlns="http://www.w3.org/2000/svg">
<path d="M513.657 102.601C513.657 159.265 467.76 205.201 411.143 205.201C354.527 205.201 308.63 159.265 308.63 102.601C308.63 45.9359 354.527 0 411.143 0C467.76 0 513.657 45.9359 513.657 102.601Z" transform="translate(27.6302)" fill="#80CD46"/>
<path d="M2 500.451H273.368C274.473 500.451 275.368 499.561 275.368 498.457V413.677C275.368 374.186 258.222 319.679 212.778 300.125C212.05 299.811 211.21 299.966 210.622 300.498C196.934 312.897 164.497 327.995 134.14 327.995C103.885 327.995 74.6646 312.482 63.073 300.583C62.5092 300.004 61.6565 299.794 60.9011 300.08C13.0817 318.217 0.360374 383.199 0 413.677V498.451C0 499.556 0.895429 500.451 2 500.451Z" transform="translate(27.6302)" fill="#80CD46"/>
<path fill-rule="evenodd" clip-rule="evenodd" d="M145.411 281.978C193.178 281.978 231.924 243.219 231.924 195.378C231.924 147.537 193.178 108.777 145.411 108.777C97.6442 108.777 58.8981 147.537 58.8981 195.378C58.8981 243.219 97.6442 281.978 145.411 281.978ZM145.411 297.978C202.028 297.978 247.924 252.043 247.924 195.378C247.924 138.713 202.028 92.7772 145.411 92.7772C88.7948 92.7772 42.8981 138.713 42.8981 195.378C42.8981 252.043 88.7948 297.978 145.411 297.978Z" transform="translate(0 7.64047)" fill="#515156"/>
<path fill-rule="evenodd" clip-rule="evenodd" d="M411.509 189.201C459.276 189.201 498.023 150.442 498.023 102.601C498.023 54.7596 459.276 16 411.509 16C363.742 16 324.996 54.7596 324.996 102.601C324.996 150.442 363.742 189.201 411.509 189.201ZM411.509 205.201C468.126 205.201 514.023 159.265 514.023 102.601C514.023 45.9359 468.126 0 411.509 0C354.893 0 308.996 45.9359 308.996 102.601C308.996 159.265 354.893 205.201 411.509 205.201Z" transform="translate(0 7.64047)" fill="#515156"/>
<path fill-rule="evenodd" clip-rule="evenodd" d="M321.172 409.857C321.172 405.439 324.753 401.857 329.172 401.857H456.223C460.641 401.857 464.223 405.439 464.223 409.857C464.223 414.275 460.641 417.857 456.223 417.857H329.172C324.753 417.857 321.172 414.275 321.172 409.857Z" transform="translate(0 7.64047)" fill="#515156"/>
<path fill-rule="evenodd" clip-rule="evenodd" d="M507.113 410.403C507.113 405.984 510.695 402.403 515.113 402.403H586C590.418 402.403 594 405.984 594 410.403C594 414.821 590.418 418.403 586 418.403H515.113C510.695 418.403 507.113 414.821 507.113 410.403Z" transform="translate(0 7.64047)" fill="#515156"/>
<path fill-rule="evenodd" clip-rule="evenodd" d="M550.557 366.929C554.975 366.929 558.557 370.511 558.557 374.929V445.876C558.557 450.294 554.975 453.876 550.557 453.876C546.138 453.876 542.557 450.294 542.557 445.876V374.929C542.557 370.511 546.138 366.929 550.557 366.929Z" transform="translate(0 7.64047)" fill="#515156"/>
<path fill-rule="evenodd" clip-rule="evenodd" d="M68.3051 307.892C49.1942 316.501 36.3328 334.117 28.0495 354.209C19.3094 375.409 16.1766 398.215 16 412.634V491.36H275.368V412.586C275.368 393.876 271.285 371.57 261.887 351.762C253.026 333.086 239.665 317.056 220.954 307.914C213.162 314.132 202.029 320.373 189.545 325.255C175.263 330.84 158.562 334.903 142.14 334.903C125.699 334.903 109.753 330.704 96.46 325.014C85.0367 320.125 75.1274 313.942 68.3051 307.892ZM66.0641 291.509C69.9593 290.031 74.139 291.174 76.8033 293.909C81.6661 298.901 90.8898 305.226 102.756 310.305C114.535 315.346 128.327 318.903 142.14 318.903C156.074 318.903 170.77 315.417 183.718 310.354C196.737 305.263 207.338 298.835 213.252 293.477C216.068 290.926 220.223 290.085 223.94 291.685C248.914 302.431 265.788 322.658 276.342 344.904C286.878 367.11 291.368 391.803 291.368 412.586V497.365C291.368 502.918 286.861 507.36 281.368 507.36H10C4.47714 507.36 0 502.882 0 497.36V412.538L0.00055933 412.491C0.190479 396.429 3.60121 371.532 13.2573 348.11C22.893 324.738 39.2617 301.674 66.0641 291.509Z" transform="translate(0 7.64047)" fill="#515156"/>
<path fill-rule="evenodd" clip-rule="evenodd" d="M332.167 200.367C336.079 198.883 340.251 200.048 342.901 202.769C347.764 207.761 356.988 214.086 368.854 219.165C380.633 224.206 394.425 227.763 408.238 227.763C422.172 227.763 436.868 224.277 449.816 219.214C462.835 214.123 473.436 207.695 479.35 202.337C482.156 199.796 486.306 198.939 490.035 200.543C524.816 215.508 543.844 248.759 552.149 280.683C555.798 294.714 557.466 308.774 557.466 321.446C557.466 325.864 553.884 329.446 549.466 329.446C545.048 329.446 541.466 325.864 541.466 321.446C541.466 310.122 539.969 297.416 536.664 284.712C529.333 256.53 513.532 229.718 487.052 216.774C479.26 222.992 468.127 229.233 455.644 234.115C441.362 239.7 424.66 243.763 408.238 243.763C391.797 243.763 375.851 239.564 362.558 233.874C351.135 228.985 341.226 222.802 334.404 216.752C308.42 228.465 294.044 256.867 287.129 284.631C286.062 288.918 281.72 291.528 277.433 290.46C273.146 289.393 270.536 285.051 271.604 280.764C279.176 250.357 296.408 213.927 332.167 200.367Z" transform="translate(0 7.64047)" fill="#515156"/>
</svg>
