<svg width="538" height="517" viewBox="0 0 538 517" fill="none" xmlns="http://www.w3.org/2000/svg">
<path d="M69 34.5C69 53.5538 47 112 34.5 112C22 112 0 53.5538 0 34.5C0 15.4462 15.4462 0 34.5 0C53.5538 0 69 15.4462 69 34.5Z" transform="translate(89.5)" fill="#80CD46"/>
<path fill-rule="evenodd" clip-rule="evenodd" d="M224 448C347.712 448 448 347.712 448 224C448 100.288 347.712 0 224 0C100.288 0 0 100.288 0 224C0 347.712 100.288 448 224 448ZM242.5 246C255 246 277 187.554 277 168.5C277 149.446 261.554 134 242.5 134C223.446 134 208 149.446 208 168.5C208 187.554 230 246 242.5 246ZM351 333.5C351 352.554 329 411 316.5 411C304 411 282 352.554 282 333.5C282 314.446 297.446 299 316.5 299C335.554 299 351 314.446 351 333.5ZM70.5 299C83 299 105 240.554 105 221.5C105 202.446 89.5538 187 70.5 187C51.4462 187 36 202.446 36 221.5C36 240.554 58 299 70.5 299Z" transform="translate(90 27)" fill="#80CD46"/>
<path fill-rule="evenodd" clip-rule="evenodd" d="M134.447 50.3803C136.628 42.4969 137.5 36.9997 137.5 34.5C137.5 24.2827 129.217 16 119 16C108.783 16 100.5 24.2827 100.5 34.5C100.5 36.9997 101.372 42.4969 103.553 50.3803C105.626 57.8699 108.547 66.3369 111.837 74.2547C114.225 79.9992 116.682 85.1529 119 89.3023C121.318 85.1529 123.775 79.9992 126.163 74.2547C129.453 66.3369 132.374 57.8699 134.447 50.3803ZM113.305 97.6155C113.066 97.8333 113.071 97.787 113.309 97.6121L113.305 97.6155ZM124.691 97.612C124.929 97.787 124.934 97.8333 124.695 97.6155L124.691 97.612ZM119 112C131.5 112 153.5 53.5538 153.5 34.5C153.5 15.4462 138.054 0 119 0C99.9462 0 84.5 15.4462 84.5 34.5C84.5 53.5538 106.5 112 119 112Z" transform="translate(0 3)" fill="#515156"/>
<path fill-rule="evenodd" clip-rule="evenodd" d="M342.947 211.38C345.128 203.497 346 198 346 195.5C346 185.283 337.717 177 327.5 177C317.283 177 309 185.283 309 195.5C309 198 309.872 203.497 312.053 211.38C314.126 218.87 317.047 227.337 320.337 235.255C322.725 240.999 325.182 246.153 327.5 250.302C329.818 246.153 332.275 240.999 334.663 235.255C337.953 227.337 340.874 218.87 342.947 211.38ZM321.805 258.615C321.566 258.833 321.571 258.787 321.809 258.612L321.805 258.615ZM333.191 258.612C333.429 258.787 333.434 258.833 333.195 258.615L333.191 258.612ZM327.5 273C340 273 362 214.554 362 195.5C362 176.446 346.554 161 327.5 161C308.446 161 293 176.446 293 195.5C293 214.554 315 273 327.5 273Z" transform="translate(0 3)" fill="#515156"/>
<path fill-rule="evenodd" clip-rule="evenodd" d="M416.947 376.38C419.128 368.497 420 363 420 360.5C420 350.283 411.717 342 401.5 342C391.283 342 383 350.283 383 360.5C383 363 383.872 368.497 386.053 376.38C388.126 383.87 391.047 392.337 394.337 400.255C396.725 405.999 399.182 411.153 401.5 415.302C403.818 411.153 406.275 405.999 408.663 400.255C411.953 392.337 414.874 383.87 416.947 376.38ZM395.805 423.615C395.566 423.833 395.571 423.787 395.809 423.612L395.805 423.615ZM407.191 423.612C407.429 423.787 407.434 423.833 407.195 423.615L407.191 423.612ZM401.5 438C414 438 436 379.554 436 360.5C436 341.446 420.554 326 401.5 326C382.446 326 367 341.446 367 360.5C367 379.554 389 438 401.5 438Z" transform="translate(0 3)" fill="#515156"/>
<path fill-rule="evenodd" clip-rule="evenodd" d="M170.947 264.38C173.128 256.497 174 251 174 248.5C174 238.283 165.717 230 155.5 230C145.283 230 137 238.283 137 248.5C137 251 137.872 256.497 140.053 264.38C142.126 271.87 145.047 280.337 148.337 288.255C150.725 293.999 153.182 299.153 155.5 303.302C157.818 299.153 160.275 293.999 162.663 288.255C165.953 280.337 168.874 271.87 170.947 264.38ZM149.805 311.615C149.566 311.833 149.571 311.787 149.809 311.612L149.805 311.615ZM161.191 311.612C161.429 311.787 161.434 311.833 161.195 311.615L161.191 311.612ZM155.5 326C168 326 190 267.554 190 248.5C190 229.446 174.554 214 155.5 214C136.446 214 121 229.446 121 248.5C121 267.554 143 326 155.5 326Z" transform="translate(0 3)" fill="#515156"/>
<path fill-rule="evenodd" clip-rule="evenodd" d="M256.5 17C240.383 17 224.643 18.5843 209.427 21.6032C205.093 22.4631 200.883 19.6468 200.023 15.313C199.163 10.9792 201.979 6.76895 206.313 5.90914C222.549 2.68786 239.332 1 256.5 1C398.161 1 513 115.839 513 257.5C513 399.161 398.161 514 256.5 514C114.839 514 0 399.161 0 257.5C0 193.761 23.2593 135.433 61.7432 90.5738C64.62 87.2204 69.6706 86.8341 73.024 89.7109C76.3773 92.5877 76.7637 97.6382 73.8869 100.992C37.7972 143.06 16 197.725 16 257.5C16 390.324 123.676 498 256.5 498C389.324 498 497 390.324 497 257.5C497 124.676 389.324 17 256.5 17ZM161.67 53.6084C164.371 50.1123 169.395 49.4682 172.892 52.1697C185.575 61.9705 226.752 79.7808 282.225 63.3302C301.443 57.631 317.024 57.8558 329.097 63.0297C341.338 68.2761 348.755 78.0887 352.501 88.9554C356.196 99.6739 356.424 111.599 354.45 122.178C352.498 132.643 348.198 142.792 341.793 149.517C338.746 152.717 333.682 152.84 330.483 149.793C327.283 146.746 327.16 141.682 330.207 138.483C333.802 134.708 337.127 127.794 338.722 119.244C340.295 110.807 339.992 101.764 337.374 94.1696C334.808 86.7238 330.13 80.8802 322.794 77.736C315.288 74.5192 303.807 73.619 286.775 78.6699C226.248 96.6192 179.758 77.6961 163.108 64.8303C159.612 62.1287 158.968 57.1045 161.67 53.6084Z" transform="translate(0 3)" fill="#515156"/>
<path fill-rule="evenodd" clip-rule="evenodd" d="M481.354 140.047C484.365 143.28 484.186 148.342 480.953 151.354C475.405 156.522 467.355 165.875 461.666 176.678C455.894 187.637 453.255 198.712 456.149 208.156L456.381 208.915L456.46 209.704C457.183 216.928 454.827 223.356 452.102 228.557C450.135 232.31 447.576 236.102 445.429 239.283C444.712 240.345 444.041 241.34 443.453 242.242C440.703 246.463 439.604 248.891 439.44 250.436C439.387 250.939 439.457 251.171 439.567 251.39C439.714 251.685 440.193 252.438 441.684 253.515C443.5 254.826 445.257 256.124 446.973 257.391C454.322 262.819 460.928 267.697 468.306 270.82C476.736 274.389 485.864 275.449 497.414 270.619C501.49 268.915 506.176 270.837 507.881 274.914C509.585 278.99 507.663 283.676 503.586 285.381C487.636 292.051 474.014 290.611 462.069 285.555C452.764 281.616 444.276 275.323 436.869 269.833C435.302 268.671 433.784 267.545 432.316 266.485C429.307 264.312 426.833 261.705 425.25 258.532C423.628 255.283 423.191 251.936 423.529 248.751C424.146 242.921 427.422 237.537 430.047 233.508C430.939 232.139 431.802 230.86 432.632 229.631C434.617 226.688 436.408 224.035 437.929 221.131C439.829 217.505 440.684 214.553 440.584 211.935C436.334 196.868 441.052 181.483 447.509 169.222C454.178 156.558 463.429 145.811 470.047 139.646C473.28 136.635 478.342 136.814 481.354 140.047ZM119.333 152.372C120.232 156.698 117.453 160.934 113.128 161.833C106.186 163.275 101.173 165.016 99.1814 169.436C98.171 171.679 97.4337 175.682 99.022 182.741C100.618 189.835 104.457 199.499 111.936 212.514C114.138 216.345 112.817 221.235 108.986 223.436C105.155 225.638 100.265 224.317 98.0636 220.486C90.1427 206.701 85.4898 195.486 83.4123 186.253C81.3266 176.984 81.7332 169.213 84.5936 162.864C90.284 150.233 103.698 147.449 109.686 146.206C109.749 146.193 109.811 146.18 109.872 146.167C114.198 145.268 118.434 148.047 119.333 152.372ZM282.548 236.349C284.012 240.518 281.82 245.084 277.651 246.548C260.684 252.507 241.208 261.274 230.468 270.71C224.975 275.536 223.37 279.136 223.351 281.341C223.337 282.999 224.273 286.67 232.28 291.741C248.624 302.092 259.927 311.174 268.293 317.895C271.558 320.519 274.376 322.783 276.872 324.623C281.442 327.992 284.956 330.013 288.605 331.153C292.184 332.272 296.444 332.71 302.648 332.046C321.001 330.079 336.865 343.129 345.262 356.413C349.589 363.258 352.588 371.093 352.974 378.614C353.367 386.273 350.984 394.418 343.563 399.571C339.82 402.171 335.311 406.591 329.878 412.261C328.695 413.495 327.475 414.783 326.223 416.102C321.964 420.594 317.35 425.459 312.687 429.873C306.671 435.567 299.986 441.093 292.958 444.547C285.822 448.054 277.484 449.81 269.029 446.428C264.117 444.463 260.416 444.011 257.926 444.434C255.873 444.782 254.227 445.755 252.852 448.301C251.266 451.237 249.971 456.502 250.254 465.322C250.533 474.035 252.328 485.563 256.238 500.47C257.359 504.744 254.803 509.117 250.53 510.238C246.256 511.359 241.883 508.803 240.762 504.53C236.672 488.937 234.592 476.152 234.262 465.834C233.935 455.623 235.296 447.138 238.773 440.699C242.461 433.87 248.283 429.843 255.246 428.66C261.772 427.552 268.633 429.037 274.971 431.572C277.766 432.69 281.178 432.509 285.901 430.187C290.733 427.813 296.017 423.621 301.688 418.252C306.006 414.166 310.207 409.737 314.412 405.303C315.715 403.93 317.018 402.556 318.325 401.192C323.627 395.659 329.18 390.079 334.437 386.429C336.016 385.332 337.196 383.352 336.995 379.433C336.787 375.376 335.036 370.18 331.738 364.962C324.885 354.121 313.999 346.921 304.352 347.954C296.556 348.79 290.003 348.353 283.833 346.425C277.731 344.518 272.558 341.321 267.378 337.502C264.173 335.139 260.954 332.55 257.408 329.698C249.212 323.105 239.269 315.106 223.72 305.259C213.727 298.93 207.267 290.963 207.352 281.203C207.432 271.988 213.421 264.389 219.907 258.69C233.125 247.076 255.149 237.493 272.349 231.452C276.518 229.988 281.084 232.18 282.548 236.349ZM353.751 267.705C356.123 263.977 361.067 262.879 364.795 265.251C369.123 268.005 374.066 273.704 376.754 280.977C379.579 288.621 380.014 298.318 374.514 308.347C370.96 314.829 364.797 319.202 358.233 321.939C351.603 324.703 343.928 326.082 336.261 326.187C321.292 326.392 304.018 321.692 293.881 309.653C286.848 301.302 282.857 292.927 282.58 284.953C282.288 276.549 286.182 269.682 292.502 265.385C296.155 262.9 301.131 263.848 303.615 267.502C306.1 271.155 305.152 276.131 301.498 278.615C299.485 279.985 298.479 281.767 298.57 284.397C298.676 287.457 300.352 292.498 306.119 299.347C311.981 306.308 323.66 310.358 336.042 310.188C342.049 310.106 347.65 309.016 352.076 307.171C356.567 305.298 359.242 302.921 360.486 300.653C363.486 295.182 363.171 290.379 361.746 286.523C360.184 282.296 357.377 279.495 356.205 278.749C352.477 276.377 351.379 271.433 353.751 267.705ZM146.326 368.771C150.043 371.16 151.119 376.109 148.729 379.826C148.282 380.523 147.512 382.477 147.3 386.266C147.097 389.901 147.443 394.62 148.589 400.254C150.879 411.507 156.241 425.799 165.807 441.298C174.616 455.568 181.011 465.806 185.643 473.22C191.423 482.473 194.456 487.329 196.005 490.135C198.139 494.004 196.733 498.87 192.865 501.005C188.996 503.139 184.13 501.733 181.995 497.865C180.631 495.391 177.966 491.128 172.67 482.654C168.094 475.333 161.555 464.869 152.193 449.702C141.759 432.801 135.621 416.76 132.911 403.446C131.557 396.796 131.028 390.674 131.325 385.372C131.613 380.223 132.718 375.144 135.271 371.174C137.66 367.457 142.609 366.381 146.326 368.771Z" transform="translate(0 3)" fill="#515156"/>
<path d="M129 131C129 135.418 125.418 139 121 139C116.582 139 113 135.418 113 131C113 126.582 116.582 123 121 123C125.418 123 129 126.582 129 131Z" transform="translate(0 3)" fill="#515156"/>
<path d="M336.5 287.5C336.5 291.918 332.918 295.5 328.5 295.5C324.082 295.5 320.5 291.918 320.5 287.5C320.5 283.082 324.082 279.5 328.5 279.5C332.918 279.5 336.5 283.082 336.5 287.5Z" transform="translate(0 3)" fill="#515156"/>
<path d="M160 345.5C160 349.918 156.418 353.5 152 353.5C147.582 353.5 144 349.918 144 345.5C144 341.082 147.582 337.5 152 337.5C156.418 337.5 160 341.082 160 345.5Z" transform="translate(0 3)" fill="#515156"/>
</svg>
