<svg width="252" height="190" viewBox="0 0 252 190" xmlns="http://www.w3.org/2000/svg">
<path fill-rule="evenodd" clip-rule="evenodd" d="M99.9482 0.437697C102.608 -1.1673 105.875 1.95471 104.488 4.73471C98.0415 17.6587 88.4185 39.8607 89.8828 54.7307C78.0903 68.9637 71 87.2497 71 107.195C71 140.155 90.3638 168.584 118.312 181.679C107.881 186.556 95.6475 189.372 82 189.372C36.7129 189.372 -3.9677e-06 152.58 0 107.195C2.56751e-06 77.8257 15.373 52.0547 38.4951 37.5237L38.5405 37.4957L99.9482 0.437697Z"/>
<path fill-rule="evenodd" clip-rule="evenodd" d="M199.489 4.73471C200.875 1.95471 197.608 -1.1673 194.948 0.437697L133.541 37.4957C133.525 37.5047 133.51 37.5147 133.495 37.5237C110.373 52.0547 95 77.8257 95 107.195C95 152.58 131.713 189.372 177 189.372C222.287 189.372 252 158.372 252 123.872C252 93.3717 230.117 69.2777 191.5 63.3717C190.71 63.2507 187.725 63.5177 187.317 62.8297C179.327 49.3837 191.716 20.3167 199.489 4.73471Z"/>
<path d="M252 123.872C252 90.4585 224.913 63.3717 191.5 63.3717C158.087 63.3717 131 90.4585 131 123.872C131 157.285 158.087 184.372 191.5 184.372C224.913 184.372 252 157.285 252 123.872Z"/>
</svg>
