<svg width="551" height="517" viewBox="0 0 551 517" fill="none" xmlns="http://www.w3.org/2000/svg">
<path fill-rule="evenodd" clip-rule="evenodd" d="M210 420C325.98 420 420 325.98 420 210C420 94.0202 325.98 0 210 0C94.0203 0 0 94.0202 0 210C0 218.785 0.539307 227.444 1.58691 235.945L223.959 163.447C227.788 162.199 231.446 165.757 230.304 169.619L158.18 413.558C174.755 417.765 192.116 420 210 420ZM87.3296 380.466L63.8564 332.259C63.3059 331.128 62.3491 330.246 61.1772 329.789L33.6309 319.051C33.5437 319.017 33.4573 318.981 33.3721 318.942L29.3223 317.095C44.1167 342 63.9141 363.586 87.3296 380.466Z" transform="translate(131 17)" fill="#80CD46"/>
<path fill-rule="evenodd" clip-rule="evenodd" d="M348.652 2.33868C350.769 4.45169 351.53 7.56879 350.625 10.4195L248.625 331.919C247.639 335.028 244.865 337.226 241.614 337.477C238.363 337.727 235.285 335.979 233.835 333.058L166.229 196.913L13.5942 346.219C10.4357 349.309 5.3707 349.253 2.28114 346.094C-0.808429 342.936 -0.752595 337.871 2.40585 334.781L162.906 177.781C164.736 175.991 167.312 175.185 169.836 175.613C172.36 176.04 174.527 177.649 175.665 179.942L239.361 308.212L330.697 20.3232L37.4825 113.883L137.368 160.244C141.376 162.104 143.117 166.861 141.256 170.868C139.396 174.876 134.64 176.617 130.632 174.757L12.132 119.757C9.1415 118.369 7.30876 115.288 7.51579 111.998C7.72283 108.707 9.92723 105.881 13.0681 104.879L340.568 0.378793C343.417 -0.530337 346.536 0.225673 348.652 2.33868Z" transform="translate(0.5 168)" fill="#515156"/>
<path fill-rule="evenodd" clip-rule="evenodd" d="M149.857 16C90.1389 16 38.6651 51.3694 15.2727 102.337C13.4297 106.353 8.68044 108.114 4.6649 106.271C0.649364 104.428 -1.11183 99.6785 0.731164 95.663C26.6352 39.223 83.6571 0 149.857 0C240.432 0 313.857 73.4253 313.857 164C313.857 232.437 271.94 291.065 212.41 315.646C208.326 317.332 203.649 315.389 201.962 311.305C200.276 307.221 202.22 302.543 206.303 300.857C260.055 278.662 297.857 225.736 297.857 164C297.857 82.2619 231.595 16 149.857 16Z" transform="translate(138.143 74)" fill="#515156"/>
<path fill-rule="evenodd" clip-rule="evenodd" d="M218.203 16C126.91 16 48.5922 71.7265 15.3821 151.097C13.6767 155.173 8.99001 157.094 4.91414 155.389C0.838268 153.683 -1.08336 148.997 0.622069 144.921C36.2312 59.817 120.227 0 218.203 0C348.44 0 454.002 105.694 454.002 236.055C454.002 342.161 384.076 431.904 287.848 461.643C283.627 462.948 279.147 460.583 277.842 456.362C276.538 452.141 278.902 447.661 283.123 446.357C372.828 418.633 438.002 334.958 438.002 236.055C438.002 114.514 339.586 16 218.203 16Z" transform="translate(69.9978)" fill="#515156"/>
<path d="M16 8C16 12.4183 12.4183 16 8 16C3.58172 16 0 12.4183 0 8C0 3.58172 3.58172 0 8 0C12.4183 0 16 3.58172 16 8Z" transform="translate(63 167)" fill="#515156"/>
<path d="M16 8C16 12.4183 12.4183 16 8 16C3.58172 16 0 12.4183 0 8C0 3.58172 3.58172 0 8 0C12.4183 0 16 3.58172 16 8Z" transform="translate(320 451)" fill="#515156"/>
</svg>
