<svg width="453" height="519" viewBox="0 0 453 519" fill="none" xmlns="http://www.w3.org/2000/svg">
<path fill-rule="evenodd" clip-rule="evenodd" d="M209.313 501.998C145.536 480.803 16.8313 401.907 5.04663 252.836C2.24341 217.376 -1.10425 127.642 0.353027 93.7337C0.407959 92.4533 1.23706 91.409 2.46826 91.0531C48.9521 77.6185 151.466 41.8683 208.967 0.572021C210.029 -0.190765 211.425 -0.190643 212.487 0.572235C269.979 41.8683 372.06 77.6183 418.531 91.053C419.762 91.4089 420.592 92.4533 420.647 93.7337C422.104 127.642 418.757 217.376 415.953 252.836C404.169 401.907 274.901 480.803 211.119 501.998C210.514 502.199 209.918 502.199 209.313 501.998ZM219.251 341.434C221.25 342.68 223.839 341.243 223.839 338.888V323.213C223.839 321.736 224.918 320.485 226.368 320.209C264.31 312.999 293 279.594 293 239.473C293 194.088 256.287 157.296 211 157.296C165.713 157.296 129 194.088 129 239.473C129 268.85 144.382 294.626 167.514 309.155L167.521 309.16L219.251 341.434Z" transform="translate(32 0.704132)" fill="#80CD46"/>
<path fill-rule="evenodd" clip-rule="evenodd" d="M218.725 17.1273C161.038 57.3702 63.5069 91.7464 16.2134 105.709C15.1343 141.588 18.3253 226.109 21.0208 260.206C32.3376 403.358 155.268 480.332 218.215 501.86C249.071 491.306 295.322 467.044 335.429 427.663C376.147 387.681 410.27 332.401 415.977 260.206C418.673 226.109 421.864 141.587 420.785 105.708C373.511 91.7423 276.386 57.3665 218.725 17.1273ZM212.299 2.07416C216.15 -0.691824 221.303 -0.691127 225.153 2.07469C281.45 42.5119 382.379 77.9613 428.752 91.3677C433.248 92.6674 436.435 96.6401 436.639 101.39C438.116 135.758 434.743 225.853 431.928 261.467C425.85 338.343 389.447 397.046 346.639 439.079C303.929 481.017 254.582 506.644 221.641 517.59C219.398 518.335 217.031 518.335 214.789 517.59C149.667 495.948 17.2254 415.218 5.07059 261.467C2.25516 225.853 -1.11753 135.758 0.35937 101.39C0.56345 96.6412 3.74875 92.6675 8.24617 91.3677C54.6455 77.9575 155.999 42.508 212.299 2.07416Z" transform="translate(0.000976562 0.704132)" fill="#515156"/>
<path fill-rule="evenodd" clip-rule="evenodd" d="M128.999 247.473C128.999 197.686 169.277 157.296 218.999 157.296C268.721 157.296 308.999 197.686 308.999 247.473C308.999 290.083 279.506 325.793 239.838 335.219V346.888C239.838 355.524 230.343 360.792 223.016 356.221L171.286 323.948L171.258 323.93C145.889 307.996 128.999 279.711 128.999 247.473ZM218.999 173.296C178.146 173.296 144.999 206.49 144.999 247.473C144.999 273.986 158.87 297.252 179.761 310.377C179.764 310.378 179.766 310.379 179.768 310.381L223.838 337.876V331.213C223.838 325.732 227.81 321.312 232.874 320.35C267.099 313.846 292.999 283.692 292.999 247.473C292.999 206.49 259.852 173.296 218.999 173.296Z" transform="translate(0.000976562 0.704132)" fill="#515156"/>
<path fill-rule="evenodd" clip-rule="evenodd" d="M113.859 99.661C115.591 103.726 113.699 108.425 109.634 110.156C90.8546 118.155 66.3819 126.783 51.999 130.932V161.796C51.999 166.214 48.4173 169.796 43.999 169.796C39.5807 169.796 35.999 166.214 35.999 161.796V124.796C35.999 121.095 38.5372 117.878 42.1362 117.016C53.3751 114.325 81.9908 104.539 103.364 95.4357C107.429 93.7043 112.128 95.5961 113.859 99.661Z" transform="translate(0.000976562 0.704132)" fill="#515156"/>
<path d="M137.999 94.2959C137.999 98.7141 134.417 102.296 129.999 102.296C125.581 102.296 121.999 98.7141 121.999 94.2959C121.999 89.8776 125.581 86.2959 129.999 86.2959C134.417 86.2959 137.999 89.8776 137.999 94.2959Z" transform="translate(0.000976562 0.704132)" fill="#515156"/>
<path d="M265.999 453.296C265.999 457.714 262.417 461.296 257.999 461.296C253.581 461.296 249.999 457.714 249.999 453.296C249.999 448.878 253.581 445.296 257.999 445.296C262.417 445.296 265.999 448.878 265.999 453.296Z" transform="translate(0.000976562 0.704132)" fill="#515156"/>
<path fill-rule="evenodd" clip-rule="evenodd" d="M349.345 366.579C353.054 368.979 354.116 373.932 351.716 377.641C343.682 390.06 330.51 403.686 317.735 415.442C304.851 427.298 291.865 437.706 283.769 443.719C280.222 446.353 275.211 445.613 272.576 442.066C269.942 438.518 270.682 433.507 274.229 430.873C281.913 425.167 294.462 415.114 306.901 403.668C319.448 392.122 331.387 379.608 338.282 368.95C340.682 365.241 345.635 364.179 349.345 366.579Z" transform="translate(0.000976562 0.704132)" fill="#515156"/>
</svg>
