<svg width="477" height="517" viewBox="0 0 477 517" fill="none" xmlns="http://www.w3.org/2000/svg">
<path fill-rule="evenodd" clip-rule="evenodd" d="M218.5 437C339.174 437 437 339.174 437 218.5C437 97.8258 339.174 0 218.5 0C97.8257 0 0 97.8258 0 218.5C0 339.174 97.8257 437 218.5 437ZM202 161C221.33 161 237 145.33 237 126C237 106.67 221.33 91 202 91C182.67 91 167 106.67 167 126C167 145.33 182.67 161 202 161ZM158.5 333.5V314C158.5 310.686 161.186 308 164.5 308H170.5C173.814 308 176.5 305.314 176.5 302V212C176.5 208.686 173.814 206 170.5 206H164.5C161.186 206 158.5 203.314 158.5 200V180.5C158.5 177.186 161.186 174.5 164.5 174.5H229C232.314 174.5 235 177.186 235 180.5V302C235 305.314 237.686 308 241 308H244.5C247.814 308 250.5 310.686 250.5 314V333.5C250.5 336.814 247.814 339.5 244.5 339.5H164.5C161.186 339.5 158.5 336.814 158.5 333.5Z" transform="translate(40)" fill="#80CD46"/>
<path fill-rule="evenodd" clip-rule="evenodd" d="M246.543 437.943L260.055 435.817C360.871 419.95 438 332.581 438 227.195C438 110.542 343.519 16 227 16C110.481 16 16 110.542 16 227.195C16 302.678 55.5502 368.921 115.108 406.285C115.115 406.29 115.122 406.295 115.13 406.299L246.543 488.179V437.943ZM262.543 517L106.628 419.854C42.5854 379.686 0 308.418 0 227.195C0 101.719 101.631 0 227 0C352.369 0 454 101.719 454 227.195C454 340.57 371.028 434.548 262.543 451.622V517Z" fill="#515156"/>
<path d="M270.573 312.719H263.579V187.931C263.579 183.269 259.805 179.488 255.152 179.488H182.427C177.773 179.488 174 183.269 174 187.931V218.326C174 222.989 177.773 226.769 182.427 226.769H189.506V312.719H182.427C177.773 312.719 174 316.499 174 321.162V351.557C174 356.22 177.773 360 182.427 360H270.573C275.227 360 279 356.22 279 351.557V321.162C279 316.499 275.227 312.719 270.573 312.719ZM190.854 343.114V329.605H197.933C202.586 329.605 206.36 325.825 206.36 321.162V218.326C206.36 213.663 202.586 209.883 197.933 209.883H190.854V196.374H246.64V321.162C246.64 325.825 250.414 329.605 255.067 329.605H262.062L262.146 343.114H190.854Z" fill="#515156"/>
<path d="M222.287 97C202.785 97 186.978 112.838 186.978 132.376C186.978 151.914 202.785 167.752 222.287 167.752C241.788 167.752 257.596 151.914 257.596 132.376C257.596 112.838 241.787 97 222.287 97ZM222.287 150.951C212.094 150.951 203.831 142.673 203.831 132.461C203.785 122.249 212.01 113.932 222.202 113.886C222.231 113.886 222.258 113.886 222.287 113.886V113.97C232.479 113.97 240.742 122.249 240.742 132.461C240.742 142.673 232.479 150.951 222.287 150.951Z" fill="#515156"/>
</svg>
