<svg width="730" height="189" viewBox="0 0 730 189" xmlns="http://www.w3.org/2000/svg">
<path fill-rule="evenodd" clip-rule="evenodd" d="M118.402 97.996C122.824 100.996 123.971 107.003 120.963 111.414L102.414 138.622L102.413 138.625L75.9782 177.373C74.2045 179.973 71.2728 181.549 68.1205 181.597C64.9682 181.644 61.9901 180.158 60.1382 177.613L13.0864 112.945C9.94538 108.628 10.9072 102.589 15.2347 99.4555C19.5622 96.3221 25.6167 97.2816 28.7577 101.599L67.7187 155.146L104.951 100.551C107.959 96.1401 113.981 94.9963 118.402 97.996Z"/>
<path fill-rule="evenodd" clip-rule="evenodd" d="M66.2562 57.1331C63.8056 57.3422 61.1647 58.4739 58.8073 61.7C55.7395 65.9097 55.4345 69.3363 55.9568 71.8209C56.5243 74.5208 58.2987 77.1461 61.0135 79.0406C63.7361 80.9405 66.9195 81.7614 69.758 81.4161C72.368 81.0987 75.3137 79.7359 77.9206 75.9846C80.4375 72.3526 80.6406 69.3135 80.0568 66.9318C79.4139 64.3087 77.5918 61.6704 74.8429 59.7214C72.0892 57.7691 68.9585 56.9026 66.2562 57.1331ZM98.8669 62.3437C100.824 70.3274 99.371 79.0051 93.8438 86.9768L93.8391 86.9837C88.2059 95.0932 80.4076 99.5808 72.1016 100.591C64.0233 101.574 56.1184 99.1989 49.9137 94.869C43.7013 90.5337 38.7095 83.895 37.0049 75.7853C35.2551 67.4612 37.1715 58.5343 43.1496 50.3345L43.1546 50.3277C48.7785 42.6278 56.502 38.578 64.6059 37.8865C72.4587 37.2164 80.073 39.7308 86.0608 43.976C92.0532 48.2246 96.969 54.6006 98.8669 62.3437Z"/>
<path fill-rule="evenodd" clip-rule="evenodd" d="M0 68.9101C0 30.8712 30.721 0 68.7553 0C106.79 0 137.511 30.8712 137.511 68.9101C137.511 70.8392 137.436 72.708 137.286 74.5803C136.86 79.8976 132.193 83.8632 126.863 83.4378C121.532 83.0125 117.557 78.3571 117.983 73.0399C118.092 71.6885 118.147 70.3337 118.147 68.9101C118.147 41.4434 95.9989 19.3169 68.7553 19.3169C41.5118 19.3169 19.3641 41.4434 19.3641 68.9101C19.3641 70.3337 19.4188 71.6885 19.5272 73.0399C19.9536 78.3571 15.9783 83.0125 10.6481 83.4378C5.31783 83.8632 0.651148 79.8976 0.224729 74.5803C0.0745774 72.708 0 70.8392 0 68.9101Z"/>
<path d="M206.937 38.4255C182.959 38.4255 167.899 55.0598 167.899 76.2073C167.899 97.3547 182.959 113.989 206.937 113.989C218.7 113.989 227.619 109.54 232.466 104.253C234.276 102.319 235.246 100.321 235.246 97.4837C235.246 93.035 232.143 89.9402 227.49 89.9402C224.84 89.9402 223.159 90.585 221.35 91.8745C218.7 93.8731 214.24 97.1613 207.131 97.1613C194.398 97.1613 187.741 87.2968 187.741 76.2073C187.741 65.1822 194.398 55.2532 207.131 55.2532C214.24 55.2532 218.7 58.5414 221.35 60.5401C223.159 61.8296 224.84 62.5388 227.49 62.5388C232.143 62.5388 235.246 59.3795 235.246 54.9308C235.246 52.094 234.276 50.1598 232.466 48.1611C227.619 42.8742 218.7 38.4255 206.937 38.4255ZM292.832 47.3229C292.832 42.3584 289.73 38.4255 283.913 38.4255C274.348 38.4255 268.014 43.0031 264.588 50.9334V49.1282C264.588 43.7123 260.064 39.0702 254.635 39.0702C248.689 39.0702 244.553 43.1966 244.553 49.1282V103.48C244.553 108.896 249.141 113.344 254.635 113.344C260.064 113.344 264.588 108.896 264.588 103.48V77.6902C264.588 64.344 272.15 56.2203 283.913 56.2203C289.213 56.2203 292.832 52.2874 292.832 47.3229ZM366.836 76.2073C366.836 55.3821 351.259 38.4255 328.961 38.4255C306.599 38.4255 291.023 55.3821 291.023 76.2073C291.023 97.0324 306.599 113.989 328.961 113.989C351.259 113.989 366.836 97.0324 366.836 76.2073ZM347.317 76.2073C347.317 87.2968 340.337 96.839 328.961 96.839C317.522 96.839 310.606 87.2968 310.606 76.2073C310.606 65.1822 317.522 55.5756 328.961 55.5756C340.337 55.5756 347.317 65.1822 347.317 76.2073ZM432.372 52.7387C432.372 48.29 428.106 44.8729 422.289 42.2294C416.666 39.586 410.526 38.4255 404.257 38.4255C384.738 38.4255 374.656 47.8387 374.656 59.8953C374.656 71.4362 380.731 79.6889 401.801 85.2981C411.561 87.9415 415.374 89.6179 415.374 93.5508C415.374 97.3547 411.237 99.4824 404.904 99.4824C397.988 99.4824 392.494 96.71 389.004 94.5179C386.742 93.035 384.545 91.7455 381.248 91.7455C377.306 91.7455 373.945 94.3889 373.945 98.1929C373.945 101.288 375.108 104.253 378.275 106.575C384.545 111.217 394.175 113.989 404.451 113.989C423.13 113.989 434.246 105.092 434.246 91.8745C434.246 77.1744 422.936 72.4033 407.23 68.148C396.631 65.3111 393.528 63.8282 393.528 59.7019C393.528 55.769 397.665 54.2861 403.74 54.2861C407.877 54.2861 411.561 55.0598 416.02 56.9295C419.187 58.219 422.16 60.0243 424.81 60.0243C430.239 60.0243 432.372 56.9295 432.372 52.7387ZM499.072 52.7387C499.072 48.29 494.806 44.8729 488.989 42.2294C483.366 39.586 477.226 38.4255 470.957 38.4255C451.438 38.4255 441.356 47.8387 441.356 59.8953C441.356 71.4362 447.496 79.6889 468.501 85.2981C478.26 87.9415 482.074 89.6179 482.074 93.5508C482.074 97.3547 477.937 99.4824 471.603 99.4824C464.688 99.4824 459.194 96.71 455.769 94.5179C453.442 93.035 451.244 91.7455 447.948 91.7455C444.006 91.7455 440.709 94.3889 440.709 98.1929C440.709 101.288 441.808 104.253 444.975 106.575C451.244 111.217 460.874 113.989 471.151 113.989C489.829 113.989 500.946 105.092 500.946 91.8745C500.946 77.1744 489.636 72.4033 473.93 68.148C463.33 65.3111 460.228 63.8282 460.228 59.7019C460.228 55.769 464.365 54.2861 470.44 54.2861C474.576 54.2861 478.26 55.0598 482.72 56.9295C485.887 58.219 488.86 60.0243 491.51 60.0243C496.939 60.0243 499.072 56.9295 499.072 52.7387ZM510.705 103.48C510.705 108.896 515.165 113.344 520.594 113.344C526.088 113.344 530.547 108.896 530.547 103.48V10.7016C530.547 5.22135 526.088 0.772644 520.594 0.772644C515.165 0.772644 510.705 5.22135 510.705 10.7016V103.48ZM543.991 17.4714C543.991 23.7254 548.903 28.6899 555.237 28.6899C561.506 28.6899 566.483 23.7254 566.483 17.4714C566.483 11.153 561.506 6.18846 555.237 6.18846C548.903 6.18846 543.991 11.153 543.991 17.4714ZM545.283 103.48C545.283 108.896 549.743 113.344 555.237 113.344C560.666 113.344 565.125 108.896 565.125 103.48V48.9992C565.125 43.5189 560.666 39.0702 555.237 39.0702C549.743 39.0702 545.283 43.5189 545.283 48.9992V103.48ZM579.086 72.5967V103.48C579.086 108.896 583.545 113.344 588.974 113.344C594.468 113.344 598.928 108.896 598.928 103.48V71.1138C598.928 62.1519 604.874 55.8979 614.181 55.8979C623.423 55.8979 629.369 62.1519 629.369 71.1138V103.48C629.369 108.896 633.829 113.344 639.322 113.344C644.751 113.344 649.211 108.896 649.211 103.48V72.5967C649.211 52.7387 634.152 38.4255 614.181 38.4255C594.145 38.4255 579.086 52.7387 579.086 72.5967ZM730 76.2073C730 54.6085 716.299 38.4255 695.616 38.4255C673.9 38.4255 658.195 54.415 658.195 76.2073C658.195 96.839 671.121 113.989 695.94 113.989C707.315 113.989 714.618 110.894 720.047 107.413C723.537 105.285 727.221 102.126 727.221 97.4837C727.221 93.3574 724.248 90.2626 719.272 90.2626C716.299 90.2626 714.295 91.7455 711.968 93.5508C708.155 96.5166 703.049 98.3219 696.715 98.3219C685.34 98.3219 679.846 91.2297 678.877 82.6547H722.891C727.997 82.6547 730 79.3665 730 76.2073ZM711.128 68.5993H679.2C680.17 60.2177 686.503 54.2861 695.616 54.2861C704.342 54.2861 709.642 61.0559 711.128 68.5993Z"/>
<path d="M8.7899 13.1527V9.60663C8.7899 4.57766 10.7288 2.83686 14.6067 2.83686H15.6408C16.4164 2.83686 17.0627 2.25659 17.0627 1.41843C17.0627 0.64474 16.4164 0 15.6408 0H14.4128C8.01432 0 5.36442 3.4816 5.36442 9.60663V13.1527H1.4219C0.646316 13.1527 0 13.733 0 14.5711C0 15.3448 0.646316 15.9896 1.4219 15.9896H5.36442V36.4278C5.36442 37.3949 6.14 38.1042 7.04485 38.1042C8.01432 38.1042 8.7899 37.3949 8.7899 36.4278V15.9896H15.2531C15.964 15.9896 16.675 15.3448 16.675 14.5711C16.675 13.733 15.964 13.1527 15.2531 13.1527H8.7899ZM43.6263 25.4028C43.6263 18.2462 38.3265 12.4435 30.7 12.4435C23.1381 12.4435 17.7737 18.2462 17.7737 25.4028C17.7737 32.5594 23.1381 38.362 30.7 38.362C38.3265 38.362 43.6263 32.5594 43.6263 25.4028ZM40.2009 25.4028C40.2009 31.141 36.0644 35.3962 30.7 35.3962C25.4002 35.3962 21.1992 31.141 21.1992 25.4028C21.1992 19.6646 25.4002 15.4093 30.7 15.4093C36.0644 15.4093 40.2009 19.6646 40.2009 25.4028ZM63.2097 14.1843C63.2097 13.2817 62.4988 12.7014 61.5293 12.7014C57.5221 12.7014 54.4844 15.1514 53.3857 18.3106V14.3777C53.3857 13.4106 52.6748 12.7014 51.7053 12.7014C50.7358 12.7014 49.9602 13.3461 49.9602 14.3777V36.4278C49.9602 37.3305 50.8004 38.1042 51.7053 38.1042C52.6101 38.1042 53.3857 37.3305 53.3857 36.4278V26.6278C53.3857 20.3093 56.6819 15.6672 61.5293 15.6672C62.4341 15.6672 63.2097 15.1514 63.2097 14.1843ZM95.5255 12.4435C88.0283 12.4435 82.9224 18.504 82.9224 25.4028C82.9224 32.237 87.7697 38.362 95.8487 38.362C100.373 38.362 104.057 36.2344 105.931 33.591C106.19 33.2686 106.319 33.0107 106.319 32.5594C106.319 31.8502 105.802 31.141 104.897 31.141C104.251 31.141 103.863 31.5923 103.604 31.9146C101.536 34.3647 99.0803 35.4607 95.8487 35.4607C89.9026 35.4607 86.5417 31.0765 86.3478 26.5633H105.996C106.771 26.5633 107.418 25.9186 107.418 25.1449C107.418 17.8593 102.506 12.4435 95.5255 12.4435ZM104.315 23.7264H86.4771C86.9295 19.0843 90.5489 15.2803 95.5255 15.2803C100.438 15.2803 103.863 18.9554 104.315 23.7264ZM113.041 13.733C112.782 13.0238 112.394 12.7014 111.554 12.7014C110.585 12.7014 110.003 13.3461 110.003 14.1843C110.003 14.5067 110.132 14.829 110.197 15.0869L120.15 37.137C120.409 37.7173 120.732 38.1042 121.572 38.1042C122.348 38.1042 122.671 37.7173 122.994 37.137L132.883 15.0869C133.012 14.829 133.076 14.5067 133.076 14.1843C133.076 13.3461 132.495 12.7014 131.525 12.7014C130.75 12.7014 130.362 13.0238 130.039 13.733L121.572 32.8818L113.041 13.733ZM147.942 12.4435C140.509 12.4435 135.339 18.504 135.339 25.4028C135.339 32.237 140.186 38.362 148.33 38.362C152.789 38.362 156.473 36.2344 158.412 33.591C158.606 33.2686 158.735 33.0107 158.735 32.5594C158.735 31.8502 158.218 31.141 157.313 31.141C156.667 31.141 156.279 31.5923 156.021 31.9146C153.952 34.3647 151.496 35.4607 148.33 35.4607C142.319 35.4607 138.958 31.0765 138.764 26.5633H158.412C159.188 26.5633 159.834 25.9186 159.834 25.1449C159.834 17.8593 154.922 12.4435 147.942 12.4435ZM156.732 23.7264H138.893C139.346 19.0843 142.965 15.2803 147.942 15.2803C152.854 15.2803 156.279 18.9554 156.732 23.7264ZM179.547 14.1843C179.547 13.2817 178.771 12.7014 177.802 12.7014C173.794 12.7014 170.757 15.1514 169.658 18.3106V14.3777C169.658 13.4106 169.012 12.7014 167.978 12.7014C167.008 12.7014 166.297 13.3461 166.297 14.3777V36.4278C166.297 37.3305 167.073 38.1042 167.978 38.1042C168.947 38.1042 169.658 37.3305 169.658 36.4278V26.6278C169.658 20.3093 172.954 15.6672 177.802 15.6672C178.706 15.6672 179.547 15.1514 179.547 14.1843ZM204.882 14.1843C204.882 13.3461 204.365 12.7014 203.396 12.7014C202.62 12.7014 202.168 13.0882 201.974 13.6685L193.572 33.9133L185.04 13.733C184.717 13.0882 184.329 12.7014 183.554 12.7014C182.584 12.7014 181.938 13.3461 181.938 14.1843C181.938 14.5067 182.067 14.7646 182.197 15.0869L191.827 37.5239C189.565 41.3923 187.238 43.7134 184.135 45.841C183.424 46.2924 183.101 46.6792 183.101 47.2595C183.101 48.0976 183.683 48.6779 184.588 48.6779C185.04 48.6779 185.299 48.5489 185.622 48.42C190.663 45.3897 194.218 40.3607 196.415 35.0739C199.195 28.4975 204.753 14.958 204.753 14.958C204.882 14.7001 204.882 14.4422 204.882 14.1843ZM232.545 25.4028C232.545 18.2462 227.245 12.4435 219.618 12.4435C212.056 12.4435 206.757 18.2462 206.757 25.4028C206.757 32.5594 212.056 38.362 219.618 38.362C227.245 38.362 232.545 32.5594 232.545 25.4028ZM229.184 25.4028C229.184 31.141 224.983 35.3962 219.618 35.3962C214.318 35.3962 210.117 31.141 210.117 25.4028C210.117 19.6646 214.318 15.4093 219.618 15.4093C224.983 15.4093 229.184 19.6646 229.184 25.4028ZM262.146 23.8554C262.146 17.279 258.139 12.4435 251.546 12.4435C247.41 12.4435 244.114 14.1843 242.304 17.3435V14.3777C242.304 13.4106 241.593 12.7014 240.623 12.7014C239.654 12.7014 238.943 13.4106 238.943 14.3777V36.4278C238.943 37.3949 239.654 38.1042 240.623 38.1042C241.593 38.1042 242.304 37.3949 242.304 36.4278V24.6291C242.304 19.0843 245.988 15.6027 250.835 15.6027C256.07 15.6027 258.72 18.8264 258.72 23.8554V36.4278C258.72 37.3949 259.496 38.1042 260.465 38.1042C261.435 38.1042 262.146 37.3949 262.146 36.4278V23.8554ZM280.824 12.4435C273.392 12.4435 268.221 18.504 268.221 25.4028C268.221 32.237 273.069 38.362 281.212 38.362C285.672 38.362 289.356 36.2344 291.295 33.591C291.489 33.2686 291.618 33.0107 291.618 32.5594C291.618 31.8502 291.101 31.141 290.196 31.141C289.55 31.141 289.162 31.5923 288.903 31.9146C286.835 34.3647 284.379 35.4607 281.212 35.4607C275.266 35.4607 271.841 31.0765 271.647 26.5633H291.359C292.07 26.5633 292.781 25.9186 292.781 25.1449C292.781 17.8593 287.805 12.4435 280.824 12.4435ZM289.614 23.7264H271.776C272.228 19.0843 275.848 15.2803 280.824 15.2803C285.736 15.2803 289.162 18.9554 289.614 23.7264Z" transform="translate(167.899 140.322)" fill="#434242"/>
</svg>
